<?xml version="1.0" encoding="utf-8"?>
<!-- Generator: Adobe Illustrator 26.5.0, SVG Export Plug-In . SVG Version: 6.00 Build 0)  -->
<svg version="1.1" id="Layer_1" xmlns="http://www.w3.org/2000/svg" xmlns:xlink="http://www.w3.org/1999/xlink" x="0px" y="0px"
	 viewBox="0 190 512 130" style="enable-background:new 0 190 512 130;" xml:space="preserve">
<style type="text/css">
	.st0{fill:#231F20;}
	.st1{fill:#C5112E;}
	.st2{fill:#FFFFFF;}
</style>
<g id="XMLID_1_">
	<path id="XMLID_15_" class="st0" d="M483.8,206.92c-5.19,0-12.06,0.56-14.45,0.56c-1.4,0-6.87-0.14-8.56-0.14v1.4
		c2.81,0.56,4.49,1.54,4.49,4.21v38.01c0,2.67-1.54,3.93-4.49,4.35v1.4c1.68,0,6.73-0.28,8.14-0.28c2.38,0,8.7,0.42,13.89,0.42
		c18.1,0,29.18-10.66,29.18-25.25C512,216.6,501.34,206.92,483.8,206.92L483.8,206.92z M270.03,206.92c-2.67,0-9.54,0.42-11.92,0.42
		c-1.54,0-6.59-0.14-8.28-0.14v1.4c3.09,0.56,4.35,1.96,4.35,4.35v37.73c0,2.67-1.54,3.93-4.35,4.49v1.4c1.68,0,6.87-0.28,8.28-0.28
		c1.54,0,6.87,0.28,8.56,0.28v-1.4c-2.95-0.56-4.49-1.96-4.49-4.49v-16.97c0.84,0.14,1.54,0.14,2.24,0.28
		c3.79,0.56,5.89,2.38,7.57,4.49c2.67,3.37,7.57,10.38,10.24,13.61c3.09,3.79,6.31,5.19,10.38,5.19c1.82,0,4.35-0.28,5.75-0.56
		v-1.12c-3.09-0.14-6.17-3.37-8.42-6.17c-2.38-2.81-8.28-11.08-10.38-13.47c-1.68-1.96-3.37-2.95-3.37-2.95
		c7.43-1.82,12.34-6.31,12.34-12.76C288.4,211.83,281.81,206.92,270.03,206.92L270.03,206.92z M425.31,206.92
		c-2.67,0-9.54,0.42-11.92,0.42c-1.54,0-6.59-0.14-8.28-0.14v1.4c3.09,0.56,4.35,1.96,4.35,4.35v37.73c0,2.67-1.68,3.93-4.35,4.49
		v1.4c1.68,0,6.87-0.28,8.14-0.28c1.54,0,6.87,0.28,8.56,0.28v-1.4c-2.95-0.56-4.63-1.96-4.63-4.49v-16.97
		c0.84,0.14,1.54,0.14,2.24,0.28c3.79,0.56,5.89,2.38,7.57,4.49c2.67,3.37,7.43,10.38,10.1,13.61c3.09,3.79,6.31,5.19,10.24,5.19
		c1.82,0,4.35-0.28,5.89-0.56v-1.12c-3.23-0.14-6.17-3.37-8.42-6.17s-8.14-11.08-10.1-13.47c-1.68-1.96-3.37-2.95-3.37-2.95
		c7.43-1.82,12.34-6.31,12.34-12.76C443.69,211.83,437.09,206.92,425.31,206.92L425.31,206.92z M213.92,207.06
		c0,0-0.84,3.23-1.54,4.77l-15.71,37.87c-1.12,2.67-2.81,4.77-6.03,5.47v1.26l7.15-0.14c0.98,0,5.33,0.14,7.01,0.14v-1.26
		c-2.81-0.7-3.51-1.82-3.51-3.23c0-0.84,0.42-2.24,0.84-3.23l3.23-8.14h18.38l3.51,8c0.56,1.12,0.98,2.38,0.98,3.37
		c0,1.12-0.7,2.38-3.23,2.95v1.26c1.82,0,7.15-0.14,8.42-0.14s6.87,0.14,8.7,0.14v-1.26c-3.37-0.84-4.63-2.67-5.75-5.33
		l-16.69-38.01c-0.7-1.54-1.4-4.77-1.4-4.77h-4.35V207.06z M370.04,207.06c0,0-0.84,3.23-1.4,4.77l-15.71,37.87
		c-1.12,2.67-2.81,4.77-5.89,5.47v1.26l7.29-0.14c0.98,0,5.19,0.14,6.73,0.14v-1.26c-2.81-0.7-3.51-1.82-3.51-3.23
		c0-0.84,0.42-2.24,0.84-3.23l3.23-8.14h18.52l3.51,8c0.56,1.12,0.84,2.38,0.84,3.37c0,1.12-0.7,2.38-3.09,2.95v1.26
		c1.82,0,7.15-0.14,8.42-0.14c1.26,0,6.87,0.14,8.7,0.14v-1.26c-3.37-0.84-4.63-2.67-5.75-5.33l-16.69-38.01
		c-0.7-1.54-1.54-4.77-1.54-4.77h-4.49V207.06z M130.6,207.2v1.4c2.38,0.56,3.93,1.68,3.93,4.21v38.29c0,2.67-1.68,3.65-3.93,4.21
		v1.26c1.12,0,6.45-0.14,7.72-0.14c1.54,0,7.01,0.14,8.28,0.14v-1.26c-2.38-0.56-4.07-1.54-4.07-4.21v-18.1h28.48v18.1
		c0,2.67-1.54,3.65-3.93,4.21v1.26c1.26,0,6.59-0.14,8.14-0.14c1.26,0,6.59,0.14,7.86,0.14v-1.26c-2.38-0.56-4.07-1.68-4.07-4.21
		v-38.29c0-2.67,1.68-3.65,4.07-4.21v-1.4c-1.26,0-6.59,0.14-7.86,0.14c-1.54,0-6.87-0.14-8.14-0.14v1.4
		c2.38,0.56,3.93,1.54,3.93,4.21v15.99h-28.62v-15.99c0-2.67,1.68-3.65,4.07-4.21v-1.4c-1.26,0-6.73,0.14-8.28,0.14
		C137.05,207.35,131.72,207.2,130.6,207.2z M296.68,207.35v1.4c2.81,0.56,4.49,2.38,5.61,4.77l19.36,43.34h3.79l17.67-41.66
		c1.68-3.93,3.51-5.61,6.45-6.31v-1.4c-1.68,0-6.31,0.28-7.43,0.28c-1.26,0-5.05-0.28-6.73-0.28v1.4c1.96,0.42,3.37,1.4,3.37,2.95
		c0,1.4-0.7,3.23-1.68,5.47l-12.06,28.9l-12.76-28.9c-1.4-2.95-2.1-4.63-2.1-5.75c0-1.68,1.82-2.52,3.37-2.81v-1.4
		c-1.82,0-7.01,0.28-8.28,0.28C304.25,207.49,298.5,207.35,296.68,207.35L296.68,207.35z M267.64,210.15
		c8.14,0,12.48,4.07,12.48,10.8c0,4.63-2.95,9.96-12.2,9.96c-2.24,0-4.63-0.14-6.17-0.28v-19.92
		C263.57,210.29,266.1,210.15,267.64,210.15z M423.07,210.15c8.14,0,12.48,4.07,12.48,10.8c0,4.63-2.95,9.96-12.2,9.96
		c-2.24,0-4.63-0.14-6.17-0.28v-19.92C419,210.29,421.38,210.15,423.07,210.15L423.07,210.15z M481.56,210.15
		c13.75,0,21.88,8.98,21.88,21.88c0,12.34-7.72,21.18-22.44,21.18c-2.52,0-5.89-0.14-7.72-0.56v-42.08
		C475.11,210.29,478.76,210.15,481.56,210.15z M214.34,218.43l7.86,18.24H206.9L214.34,218.43z M370.46,218.43l7.86,18.24h-15.15
		L370.46,218.43z"/>
	<path id="XMLID_16_" class="st1" d="M53.44,192.06H0.42l-0.14,42.36c0,51.9,52.04,85.01,52.6,85.43l0.14,0.14l0.42-0.28
		c8.84-5.75,53.02-37.17,53.02-85.01v-42.5L53.44,192.06"/>
	<path id="XMLID_17_" d="M0.98,234.42h0.98v-41.24h104.78v-0.98h-0.98c0,0,0,6.31,0,42.5c0,26.37-13.19,47.41-26.37,61.86
		c-6.59,7.15-13.19,12.76-18.24,16.55c-2.52,1.82-4.49,3.37-6.03,4.21c-0.7,0.42-1.26,0.84-1.68,1.12
		c-0.42,0.28-0.56,0.42-0.56,0.42l0.42,0.84l0.56-0.84c0,0-0.14-0.14-0.56-0.42c-2.81-1.82-15.71-10.8-27.91-25.25
		c-12.2-14.45-23.57-34.51-23.57-58.77v-0.84H0.84l0,0L0.98,234.42l0.84-0.56l0,0L0.98,234.42h0.98H0.98l-0.84,0.56l0,0l0.28,0.42
		h0.56l0,0V234.42H0c0,26.51,13.19,47.97,26.37,62.84c13.19,14.87,26.37,23.15,26.37,23.15l0.42,0.28l0.56-0.28
		c0,0,13.47-7.86,26.93-22.58c13.47-14.59,26.93-36.05,26.93-63.12c0-18.1,0-28.76,0-34.79s0-7.72,0-7.72v-0.98H0v43.48l0.14,0.28
		L0.98,234.42z"/>
	<path id="XMLID_35_" class="st1" d="M348.3,278.88c-5.19,0-8.56,2.67-8.56,7.01c0,4.91,4.91,6.73,7.29,7.86
		c3.23,1.54,6.03,2.81,6.03,5.61c0,2.67-2.1,4.21-5.47,4.21c-1.54,0-3.37-0.42-4.63-1.26c-1.12-0.7-1.96-2.1-2.38-3.51h-0.7v5.33
		c1.82,0.28,4.07,1.26,7.57,1.26c5.89,0,9.26-2.95,9.26-7.15c0-4.49-3.79-6.17-7.43-7.72c-2.95-1.26-6.03-2.95-6.03-5.75
		c0-2.1,1.4-4.07,4.77-4.07c2.95,0,5.75,1.12,6.73,4.07h0.7v-5.19C353.35,279.73,351.67,278.88,348.3,278.88z M258.1,278.88
		c-8,0-13.47,5.61-13.47,13.33c0,7.29,4.35,13.19,13.61,13.19c4.49,0,7.15-1.54,8.98-1.26l0.28-5.61h-0.7
		c-1.26,3.65-4.21,5.05-8.14,5.05c-7.15,0-9.68-6.31-9.68-11.36c0-6.17,3.23-11.36,9.12-11.36c3.51,0,6.87,1.68,8.28,5.05h0.7
		l-0.28-5.61C264.42,280.29,262.03,278.88,258.1,278.88z M376.92,278.88c-8,0-13.47,5.61-13.47,13.33c0,7.29,4.35,13.19,13.75,13.19
		c4.49,0,7.15-1.54,8.98-1.26l0.28-5.61h-0.7c-1.26,3.65-4.21,5.05-8.14,5.05c-7.01,0-9.68-6.31-9.68-11.36
		c0-6.17,3.23-11.36,9.12-11.36c3.51,0,6.87,1.68,8.28,5.05h0.7l-0.28-5.61C383.23,280.29,380.84,278.88,376.92,278.88z
		 M440.04,278.88c-8,0-13.05,6.03-13.05,13.33c0,7.43,5.05,13.19,13.05,13.19c8,0,13.05-5.89,13.05-13.19
		S448.04,278.88,440.04,278.88z M472.02,278.88c-8,0-13.05,6.03-13.05,13.33c0,7.43,5.05,13.19,13.05,13.19
		c8,0,13.05-5.89,13.05-13.19S480.02,278.88,472.02,278.88z M188.25,279.17c-0.56,0.14-1.4,0.28-1.82,0.28h-15.99v0.7
		c1.54,0.28,2.24,0.98,2.24,2.24v19.5c0,1.4-0.84,2.1-2.24,2.38v0.7c0.84,0,3.65-0.14,4.35-0.14h8.14c2.81,0,4.21,0,6.59,0.28
		l0.7-5.33l-0.7-0.14c-0.84,1.96-1.68,3.23-5.05,3.23h-7.72v-10.38h5.47c0.7,0,1.68,0.14,2.1,0.14c1.12,0.28,1.68,1.12,1.96,2.1h0.7
		c0-0.84-0.14-2.67-0.14-3.23c0-0.56,0-2.24,0.14-3.09h-0.7c-0.28,0.98-0.7,1.68-1.96,1.96c-0.42,0.14-1.4,0.14-2.1,0.14h-5.47
		v-9.12h6.73c3.09,0,4.07,1.26,4.63,2.95h0.7l0.14-5.19H188.25z M208.73,279.17c-2.67,0-6.03,0.28-7.29,0.28
		c-0.7,0-3.51-0.14-4.35-0.14v0.7c1.4,0.28,2.24,0.84,2.24,2.24v19.64c0,1.4-0.84,1.96-2.38,2.24v0.7c0.84,0,3.51-0.14,4.21-0.14
		c1.26,0,4.35,0.28,7.01,0.28c9.26,0,15.01-5.61,15.01-13.05C223.18,284.22,217.85,279.17,208.73,279.17z M282.93,279.31
		c0,0-0.42,1.68-0.7,2.52l-8.14,19.64c-0.56,1.4-1.54,2.38-3.09,2.81v0.7l3.79-0.14c0.56,0,2.67,0.14,3.51,0.14v-0.7
		c-1.4-0.42-1.82-0.98-1.82-1.68c0-0.42,0.28-1.12,0.42-1.68l1.68-4.21h9.54l1.82,4.21c0.28,0.56,0.42,1.26,0.42,1.68
		c0,0.56-0.42,1.26-1.68,1.54v0.7c0.98,0,3.65-0.14,4.35-0.14c0.7,0,3.51,0.14,4.49,0.14v-0.7c-1.68-0.42-2.38-1.4-2.95-2.81
		l-8.56-19.64c-0.28-0.84-0.7-2.52-0.7-2.52h-2.38V279.31z M393.61,279.45v0.7c1.26,0.28,2.1,0.84,2.1,2.24v19.64
		c0,1.4-0.84,1.96-2.1,2.24v0.7c0.56,0,3.37-0.14,4.07-0.14c0.7,0,3.65,0.14,4.21,0.14v-0.7c-1.26-0.28-2.1-0.84-2.1-2.24v-9.26
		h14.59v9.26c0,1.4-0.84,1.96-1.96,2.24v0.7c0.7,0,3.37-0.14,4.21-0.14c0.7,0,3.51,0.14,4.07,0.14v-0.7
		c-1.26-0.28-2.1-0.84-2.1-2.24v-19.64c0-1.4,0.84-1.96,2.1-2.24v-0.7c-0.56,0-3.51,0.14-4.07,0.14c-0.84,0-3.51-0.14-4.21-0.14v0.7
		c1.26,0.28,1.96,0.84,1.96,2.24v8.28h-14.59v-8.28c0-1.4,0.84-1.96,2.1-2.24v-0.7c-0.56,0-3.51,0.14-4.21,0.14
		C396.98,279.45,394.17,279.45,393.61,279.45z M229.21,279.45v0.7c1.54,0.28,2.24,0.98,2.24,2.38v19.36c0,1.4-0.7,2.1-2.24,2.38v0.7
		c0.84,0,3.79-0.14,4.49-0.14c0.84,0,3.51,0.14,4.35,0.14v-0.7c-1.54-0.28-2.24-0.98-2.24-2.38v-19.36c0-1.4,0.84-1.96,2.24-2.38
		v-0.7c-0.84,0-3.65,0.14-4.35,0.14C232.85,279.45,230.05,279.45,229.21,279.45z M302.29,279.45v0.7c1.54,0.28,2.24,0.98,2.24,2.38
		v19.36c0,1.4-0.7,2.1-2.24,2.38v0.7c0.84,0,3.79-0.14,4.49-0.14h8.14c2.81,0,4.21,0,6.59,0.28l0.7-5.33l-0.7-0.14
		c-0.84,1.96-1.82,3.23-5.05,3.23h-7.72v-20.34c0-1.4,0.84-1.96,2.24-2.38v-0.7c-0.84,0-3.65,0.14-4.35,0.14
		C305.94,279.45,303.13,279.45,302.29,279.45z M490.96,279.45v0.7c1.54,0.28,2.24,0.98,2.24,2.38v19.36c0,1.4-0.7,2.1-2.24,2.38v0.7
		c0.84,0,3.79-0.14,4.49-0.14h8.14c2.81,0,4.21,0,6.59,0.28l0.7-5.33l-0.7-0.14c-0.84,1.96-1.82,3.23-5.05,3.23h-7.72v-20.34
		c0-1.4,0.84-1.96,2.24-2.38v-0.7c-0.84,0-3.65,0.14-4.35,0.14C494.75,279.45,491.8,279.45,490.96,279.45z M132.56,279.45v0.7
		c1.54,0.28,2.24,0.98,2.1,2.24l-1.4,18.94c-0.14,1.54-0.98,2.52-2.52,2.95v0.7h3.65c0.56,0,2.67,0,3.51,0v-0.7
		c-1.68-0.42-2.1-1.4-2.1-2.52l1.12-16.83l8.7,20.06h1.54l8.7-20.2l1.12,16.83c0,1.12-0.42,2.1-2.1,2.52v0.7c0.84,0,3.79,0,4.35,0
		h4.35v-0.7c-1.68-0.42-2.38-1.26-2.52-2.95l-1.4-18.94c-0.14-1.26,0.56-1.96,1.96-2.24v-0.7c-0.98,0-2.67,0-3.37,0
		c-0.56,0-1.82,0-2.67,0l-8.42,19.5l-8.42-19.5c-0.84,0-2.1,0-2.81,0C135.5,279.45,133.54,279.45,132.56,279.45z M440.04,280.85
		c6.03,0,8.56,5.61,8.56,11.5c0,5.89-2.67,11.36-8.56,11.36c-5.89,0-8.7-5.33-8.7-11.36S434.01,280.85,440.04,280.85z
		 M472.02,280.85c5.89,0,8.56,5.61,8.56,11.5c0,5.89-2.67,11.36-8.56,11.36s-8.56-5.33-8.56-11.36
		C463.32,286.32,465.99,280.85,472.02,280.85z M207.47,280.85c7.15,0,11.36,4.63,11.36,11.22c0,6.73-3.93,10.94-11.5,10.94
		c-1.4,0-2.95-0.14-3.79-0.28v-21.74C204.38,280.99,206.06,280.85,207.47,280.85z M283.07,285.2l4.07,9.4h-7.86L283.07,285.2z"/>
	<path id="XMLID_36_" d="M74.77,296.14L74.77,296.14L74.77,296.14L74.77,296.14L74.77,296.14L74.77,296.14L74.77,296.14
		c-0.28-0.28-0.7-0.84-0.98-1.12c-0.42-1.82,2.52-3.09,0.98-5.05c-0.28-1.12-0.14-2.67-1.26-3.65c-0.84-0.7-1.96-0.84-2.95-1.4
		c0-0.42,0.56-0.28,0.98-0.42c1.54-0.42,2.95,1.4,4.07,0.14c0.14-0.98-0.84-1.96-1.54-2.67c-2.24-1.54-5.75-0.98-7.43-3.37
		l0.28-0.14c2.24,0.42,4.63,0.14,6.31-1.4c0.98-1.26,1.96-2.52,3.51-2.95c1.54-1.12,1.68-3.09,1.68-5.05
		c0.14-0.7,0.42-1.4,0.98-1.96c0.84-0.84,2.95-0.42,2.52-2.1c-1.12-0.56-2.38-1.12-3.79-0.98c-0.7-0.28,0.14-0.84,0.28-1.12
		c2.24-1.4,5.75-2.38,5.47-5.61c-0.28-0.42-0.14-0.84-0.7-0.98c-0.98,0.14-1.54,0.98-2.38,1.4c-2.1,1.12-4.77,0.98-6.73,2.24
		c-0.42,0-0.28-0.56-0.14-0.7c0.7-0.98,2.24-1.12,2.81-2.38c0.42-0.98,0.56-2.38,1.82-2.81c0.7-0.56,1.82-0.56,2.24-1.4
		c0-0.42-0.56-0.7-0.98-0.84c-1.96-0.56-3.93,0.56-5.33,1.96c-1.4,0.56-3.09,1.12-4.21,2.38c-0.14,0-0.56,0-0.56-0.42
		c-0.28-2.81,2.24-4.77,4.07-6.45c1.26-0.42,2.38-1.96,3.93-1.26c0.98,0.56,2.1,1.12,3.37,0.7c1.54-0.56,1.82-2.24,3.23-3.09
		c0.98-0.28,2.52,1.12,3.09-0.28c0.28-1.54-0.84-2.38-1.54-3.51c0.84-2.1,0.14-4.63-1.54-6.17c-0.84-0.42-1.82-0.84-2.81-0.56
		c-0.7,0.98,0.7,1.54,0.84,2.52c0.28,3.93-3.93,4.91-6.45,6.45c-4.91,2.38-10.66,6.17-11.08,12.34c0,3.51,1.54,6.45,3.93,8.98
		c1.26,2.1,3.23,4.07,2.52,6.87c-0.42,1.12-1.82,1.26-2.81,1.26c-4.21-0.28-6.45-4.91-8.14-8.14c-0.56-1.26-1.26-2.38-1.4-3.93
		c0.28-0.14,0.42-0.14,0.56,0c0.7,0.7,0.7,2.38,1.96,2.1c0.98-1.4,0.28-3.23-0.28-4.63c-0.7-1.26-2.38-1.96-2.95-3.37
		c0-0.98,1.4-0.42,1.54-1.4c-0.56-1.82-0.56-3.65-0.42-5.33c0.28-0.7,1.4-0.7,1.4-1.68c-0.42-1.68-0.42-3.51-0.42-5.33
		c0.14-1.12,1.12-2.24,0.42-3.51c-1.26-0.42-0.28-1.82-1.4-2.24c-2.38,0-4.07-1.26-6.03-1.96c-0.98-0.28-1.82,0.28-2.67,0.56
		c-1.26,0.28-2.67,0.28-3.65,1.26c-0.56,0.7-0.42,1.54-0.42,2.67c-0.14,0.56-0.7,0.14-0.98,0c-0.98-0.56-1.26-1.54-0.98-2.67
		c0.14-0.42-0.14-0.98-0.42-1.26c-0.56-0.42-1.54-0.56-2.24-0.28c-0.98,0.28-1.26,1.4-1.68,2.24c-0.14,0.7,0.14,1.54,0.42,2.1
		c1.4,1.4,3.37,1.96,4.91,3.23c0.28,0.84-0.28,1.68-0.84,2.38c-0.14,0.7,0.98,0.7,0.84,1.4c-1.12,0.28-2.24,0.14-3.09-0.56
		c-0.56-0.42-0.7-1.54-1.54-1.68c-0.84,0-0.98,1.12-1.26,1.68c-0.28,0.56,0,1.68-0.56,2.1l-0.56-0.14
		c-2.81-0.98-5.33-2.52-7.86-4.35c-1.4-1.12-2.52-2.81-3.65-4.21c-0.56-1.68-0.84-4.21-3.09-4.63c-0.42,0-1.12,0.14-1.12,0.7
		l-0.14,0.7c-1.12,0-2.24-0.84-3.37-0.42c-0.56,0.42-1.12,0.84-1.4,1.26c0,1.26,1.4,0.84,1.68,1.68c0,0.84,0.7,1.68,1.12,2.24
		c-0.28,0.42-0.84,0.7-1.12,1.26l-0.7,1.68c0.28,0.56,0.56,1.26,1.26,1.26c0.98-0.42,1.82,0.28,2.81,0.14
		c0.56,0,1.68-0.42,1.68,0.56c0.28,0.84,0,1.54-0.14,2.38c-0.84,1.26-2.1,2.24-3.37,2.95c-0.42,0.28-0.42,0.84-0.28,1.26
		c0.42,0.7,1.54,0.42,2.38,0.28c1.4,0,2.52-0.84,3.93-0.98c0.28,0.7,0.84,1.54,1.54,1.82c1.12,0.28,1.4-1.26,2.52-0.84
		c0.84,0.7,0.56,1.96,1.4,2.81c0,0.42-0.42,0.42-0.7,0.7c-1.12,0.42-2.81,0-3.79,0.98c-0.14,0.56,0.28,0.98,0.7,1.26
		c0.98,0.56,2.38,0.7,3.65,0.84c1.12,0.14,2.24-0.28,3.37,0l-0.28,0.56l-3.37,2.24c-1.54,0.56-3.23,0.98-4.63,1.68
		c-2.1,0.56-3.09-2.1-5.05-1.96c-0.84,0-1.4,0.28-1.96,0.7c-0.42,0.42-0.56,1.26-0.42,1.82c0.28,0.56,1.12,0.28,1.12,0.98
		c-0.14,1.96-1.68,3.37-1.82,5.33c-0.14,0.42,0,1.12,0.56,1.26c0.42,0.14,0.84,0,1.12-0.28c0.42-0.42,0.42-0.98,1.12-1.12
		c1.12,0.14,2.38,0.14,3.23-0.84c0.42,0,0.84,0.42,0.84,0.7c0,0.42,0,0.98,0.42,1.26c1.68,0,2.52-1.68,3.37-2.95
		c0.7-0.14,1.54-0.7,2.38-0.28c0.28,1.12-0.7,1.96-0.84,3.09c0,0.28,0.42,0.56,0.7,0.56c2.1-0.28,3.23-2.24,4.49-3.79
		c0.14-0.42,0.42-0.98,0.98-0.98c1.54,0.42,1.96-1.4,2.95-2.1h0.42c0.14,0.42-0.14,0.84,0,1.26c0.7,0.7,1.4-0.14,2.1-0.14l1.4-0.84
		c1.68,0.56,3.51,0.98,5.33,1.4c1.4,0.56,0,2.1,0.84,2.95c-0.14,0.42-0.84,0.56-1.4,0.56c-3.09,0.42-6.59-0.42-8.98,1.82l-1.4,1.4
		c-2.24,0.14-3.51,1.96-5.47,2.38c-1.4,0.98-3.51-0.42-4.49,1.12c0.7,1.4,2.38,1.96,3.93,2.38c0.56,0.28,1.68-0.14,1.96,0.56
		c0.14,0.7,0.28,1.54,0.98,1.82c0.56,0.14,0.98-0.7,1.54-0.28c0.7,0.98,1.82,1.54,2.52,2.52c-0.42,0.84-1.68,0.28-2.52,0.28h-0.14
		c-1.26,0.14-2.81,0.7-3.79-0.42c-1.26-0.98-2.38-2.52-4.21-2.52c-0.98,0.28-2.1,0.7-2.38,1.82c-0.14,0.7,0.56,0.98,0.84,1.4
		c-1.26,0.84-2.52,2.1-2.1,3.79c0.14,0.28,0.28,0.7,0.7,0.7c0.56,0,1.12-0.56,1.68-0.28c0.14,0.98-0.14,2.67,1.12,3.09
		c0.98-0.14,1.68-1.12,2.67-0.42c0.98,0.42,1.82-0.42,2.81-0.84c1.4,0,1.96,1.4,2.52,2.38c0.84,0.7,2.1,1.82,3.37,1.12
		c0.84-1.12-0.7-2.67,0.84-3.51c0.98-0.28,1.82,0,2.81-0.14c1.54,0.14,3.37,0.28,4.21-1.4l1.4-2.38l0.28-1.4
		c0.84-0.28,2.24,1.12,2.67-0.14c-0.42-1.4-0.56-2.81-0.42-4.35c0.28-0.98,0.7-1.96,1.4-2.67l0.28,0.14
		c0.42,1.68,0.42,3.51,1.26,5.05c-0.14,1.54-0.98,2.95-1.12,4.49c-0.42,1.68-1.54,2.95-3.09,3.79c-0.42,0.28-0.56,0.7-0.42,1.26
		c0.42,0.84,1.4,0.28,2.24,0.42c2.1-0.28,4.07-1.26,5.61-2.95c1.54,0.42,2.24-1.4,3.65-0.56c1.4,1.12,4.07-0.84,4.63,1.54
		c-0.28,1.12,0.84,3.09-0.98,3.65c-1.82-0.28-3.93-2.67-5.61-0.56c-0.42,0.42-0.7,0.98-0.42,1.54c0.28,0.56,0.56,1.12,0.14,1.54
		c-0.42,0.84-1.12,1.82-0.7,2.95c0.28,0.56,0.98,0.56,1.68,0.56c0.98-0.42,1.96,0.42,3.09,0.56c0.84,0.7,1.82,1.54,2.95,1.4
		c0.42-0.28,0.42-0.84,0.7-1.26c0.7-0.56,2.38-0.42,2.38-1.82c0.14-0.98,1.12-1.96,1.96-2.52C72.24,297.54,74.2,297.12,74.77,296.14
		z"/>
	<path id="XMLID_37_" d="M74.77,296.14l0.14-0.14l0,0L74.77,296.14v0.14l0,0v-0.42l0,0v0.42l0,0v-0.42l0,0v0.42l0,0h0.56L74.91,296
		c-0.28-0.28-0.7-0.84-0.98-0.98l-0.14,0.14h0.14v-0.28c0-0.56,0.28-1.12,0.7-1.68c0.42-0.56,0.84-1.12,0.84-1.96
		c0-0.42-0.14-0.84-0.42-1.26l-0.14,0.14h0.14c-0.28-1.12,0-2.67-1.26-3.65l-0.14,0.14l0.14-0.14c-0.84-0.7-1.96-0.84-2.95-1.4
		l-0.14,0.14h0.14v-0.14c0-0.14,0.42,0,0.84-0.14l-0.14-0.14v0.14h0.42c0.84,0,1.68,0.7,2.52,0.7c0.42,0,0.84-0.14,1.12-0.56l0,0
		l0,0v-0.28c0-1.12-0.98-1.96-1.54-2.52l0,0l0,0c-1.12-0.84-2.67-1.12-4.07-1.4c-1.4-0.28-2.67-0.84-3.37-1.96l0-0.42l0.14,0.14
		l0.28-0.14l-0.14-0.14v0.14c0.56,0.14,1.26,0.14,1.82,0.14c1.68,0,3.37-0.56,4.63-1.68l0,0l0,0c0.98-1.26,1.96-2.52,3.37-2.81l0,0
		l0,0c1.68-1.26,1.82-3.23,1.82-5.19h-0.14h0.14c0-0.7,0.42-1.4,0.98-1.82l-0.14-0.14l0.14,0.14c0.28-0.28,0.98-0.42,1.54-0.7
		c0.28-0.14,0.56-0.28,0.84-0.42c0.28-0.14,0.42-0.42,0.42-0.84v-0.42v-0.14H82.2c-0.98-0.56-2.1-1.12-3.37-1.12h-0.42v0.14
		l0.14-0.14l-0.14-0.14l0.14-0.28l0.42-0.42l-0.14-0.14l0.14,0.14c1.12-0.7,2.38-1.26,3.65-2.1c1.12-0.84,2.1-1.82,2.1-3.51v-0.14
		l0,0l0,0c-0.14-0.14-0.14-0.28-0.14-0.56c-0.14-0.28-0.28-0.42-0.7-0.56l0,0l0,0c-1.12,0.14-1.68,1.12-2.52,1.4l0,0l0,0
		c-1.96,1.12-4.63,0.98-6.73,2.24l0.14,0.14v-0.14h-0.14v-0.14l0.14-0.28l0,0l0,0c0.28-0.42,0.84-0.7,1.4-0.98
		c0.56-0.28,1.12-0.7,1.4-1.4l0,0c0.42-1.12,0.7-2.38,1.68-2.67l0,0l0,0c0.28-0.28,0.7-0.42,1.12-0.56
		c0.42-0.14,0.84-0.42,1.12-0.84l0,0l0,0c-0.14-0.7-0.7-0.84-1.12-0.98l0,0l0,0c-0.42-0.14-0.84-0.14-1.12-0.14
		c-1.68,0-3.23,0.98-4.35,2.1l0.14,0.14l-0.14-0.14c-1.4,0.56-3.09,1.12-4.35,2.38l0.14,0.14v-0.14l0,0l-0.28-0.28l0,0l0,0v-0.42
		c0-2.38,2.24-4.35,3.93-5.89l-0.7-0.28v0.14c1.12-0.28,2.1-1.4,3.09-1.4c0.28,0,0.42,0,0.7,0.14l0.14-0.14l-0.14,0.14
		c0.84,0.42,1.68,0.84,2.52,0.84c0.28,0,0.56,0,0.98-0.14l0,0c1.68-0.56,1.96-2.38,3.23-3.09l-0.14-0.14v0.14h0.28
		c0.56,0,1.26,0.42,1.96,0.42c0.42,0,0.84-0.28,0.98-0.7l0,0l0,0c0-0.14,0-0.42,0-0.56c0-1.4-1.12-2.24-1.68-3.09l-0.14,0.14h0.14
		c0.28-0.7,0.42-1.4,0.42-1.96c0-1.68-0.7-3.23-1.96-4.35l0,0l0,0c-0.7-0.42-1.4-0.7-2.24-0.7c-0.28,0-0.56,0-0.84,0.14l0,0l0,0
		c-0.14,0.28-0.28,0.42-0.28,0.7c0,0.42,0.28,0.7,0.56,1.12c0.28,0.28,0.42,0.56,0.42,0.98l0,0v0.42c0,1.68-0.98,2.81-2.24,3.65
		c-1.26,0.84-2.95,1.54-4.21,2.24l0.14,0.14l-0.14-0.14c-4.91,2.38-10.8,6.17-11.22,12.48l0,0l0,0c0,3.51,1.54,6.59,3.93,9.12
		l0.14-0.14l-0.14,0.14c1.12,1.82,2.67,3.51,2.67,5.61c0,0.42,0,0.7-0.14,1.12h0.14l-0.14-0.14c-0.42,0.98-1.54,1.12-2.67,1.12v0.14
		v-0.14c-4.07-0.28-6.31-4.77-8-8l-0.14,0.14l0.14-0.14c-0.56-1.26-1.26-2.38-1.4-3.79h-0.14l0.14,0.14l0.14-0.14l0.28,0.14
		l0.14-0.14l-0.14,0.14c0.28,0.28,0.42,0.84,0.7,1.26s0.56,0.98,1.26,0.98h0.28h0.14l0,0c0.42-0.56,0.56-1.12,0.56-1.82
		c0-1.12-0.42-2.1-0.84-3.09l0,0l0,0c-0.84-1.4-2.38-2.1-2.95-3.37l-0.14,0.14h0.14l0,0l0.14-0.28c0.14-0.14,0.42-0.14,0.7-0.28
		c0.28-0.14,0.56-0.28,0.7-0.84l0,0l0,0c-0.42-1.12-0.56-2.38-0.56-3.51c0-0.56,0-1.12,0.14-1.68h-0.14h0.14
		c0.14-0.28,0.42-0.42,0.7-0.7c0.28-0.14,0.7-0.56,0.7-1.12l0,0l0,0c-0.28-1.26-0.42-2.38-0.42-3.79c0-0.56,0-0.98,0-1.54H59.9h0.14
		c0.14-0.84,0.7-1.68,0.7-2.67c0-0.28,0-0.7-0.28-0.98v-0.14h-0.14c-0.28-0.14-0.42-0.14-0.42-0.28c-0.14-0.28-0.14-0.56-0.14-0.98
		c0-0.42-0.28-0.7-0.7-0.98l0,0l0,0c-2.24,0-3.93-1.26-6.03-1.96l0,0l0,0c-0.14,0-0.42-0.14-0.56-0.14c-0.84,0-1.54,0.42-2.1,0.56
		v0.14v-0.14c-1.26,0.28-2.67,0.28-3.65,1.26l0,0l0,0c-0.42,0.56-0.56,1.12-0.56,1.82c0,0.28,0,0.56,0,0.98h0.14h-0.14l-0.14,0.14
		c-0.14,0-0.42-0.14-0.7-0.28v0.14l0.14-0.14c-0.7-0.42-0.98-0.98-0.98-1.82c0-0.14,0-0.42,0.14-0.7l0,0v-0.28
		c0-0.42-0.28-0.84-0.56-1.12l0,0l0,0c-0.42-0.28-0.98-0.56-1.68-0.56c-0.28,0-0.56,0-0.84,0.14v0.14V234
		c-1.12,0.42-1.4,1.54-1.82,2.38l0,0l0,0v0.42c0,0.56,0.14,1.26,0.42,1.82l0,0l0,0c1.4,1.54,3.37,2.1,4.91,3.23l0.14-0.14h-0.14
		v0.42c0,0.56-0.42,1.26-0.84,1.82l0,0l0,0v0.14c0,0.42,0.28,0.7,0.56,0.84c0.28,0.14,0.42,0.28,0.42,0.42v0.14h0.14v-0.14
		c-0.28,0.14-0.56,0.14-0.84,0.14c-0.7,0-1.4-0.28-1.96-0.7l-0.14,0.14l0.14-0.14c-0.28-0.14-0.42-0.56-0.7-0.98
		s-0.56-0.7-1.12-0.84l0,0l0,0c-0.56,0-0.84,0.42-0.98,0.7c-0.14,0.42-0.28,0.84-0.42,0.98l0,0l0,0c-0.14,0.42-0.14,0.84-0.28,1.12
		c0,0.42-0.14,0.7-0.28,0.84l0.14,0.14v-0.14l-0.56-0.14v0.14v-0.14c-2.81-0.98-5.33-2.52-7.86-4.35c-1.4-1.12-2.38-2.67-3.51-4.21
		l-0.14,0.14h0.14c-0.28-0.84-0.42-1.96-0.84-2.81c-0.42-0.98-1.12-1.68-2.24-1.96l0,0l0,0c-0.28,0-0.56,0-0.84,0.14
		c-0.28,0.14-0.56,0.28-0.56,0.7h0.14h-0.14l-0.14,0.7h0.14v-0.14c-0.84,0-1.68-0.42-2.67-0.42c-0.28,0-0.56,0-0.84,0.14l0,0l0,0
		c-0.56,0.42-1.12,0.84-1.54,1.4l0,0l0,0v0.14c0,0.7,0.42,0.98,0.84,1.12c0.42,0.14,0.7,0.28,0.84,0.56h0.14h-0.14
		c0,0.98,0.7,1.82,1.12,2.38l0.14-0.14l-0.14-0.14c-0.28,0.42-0.84,0.7-1.12,1.26l0,0l-0.7,1.68v0.14v0.14
		c0.28,0.56,0.56,1.26,1.4,1.4l0,0l0,0c0.14-0.14,0.42-0.14,0.56-0.14c0.56,0,1.12,0.28,1.96,0.28h0.28v-0.14v0.14h0.14
		c0.28,0,0.7-0.14,0.98-0.14l0.28,0.14c0,0,0.14,0.14,0.14,0.42l0,0l0,0c0.14,0.28,0.14,0.42,0.14,0.7c0,0.56-0.14,0.98-0.28,1.54
		h0.14l-0.14-0.14c-0.84,1.26-2.1,2.24-3.37,2.81l0,0l0,0c-0.28,0.28-0.42,0.56-0.42,0.98c0,0.14,0,0.42,0.14,0.56l0,0l0,0
		c0.28,0.42,0.84,0.56,1.26,0.56c0.42,0,0.84-0.14,1.26-0.14v-0.14v0.14c1.54-0.14,2.67-0.98,3.93-0.98v-0.14l-0.14,0.14
		c0.42,0.7,0.98,1.54,1.68,1.96l0,0l0,0h0.28c0.42,0,0.84-0.28,1.12-0.56c0.28-0.28,0.56-0.42,0.84-0.42h0.28v-0.14l-0.14,0.14
		c0.42,0.28,0.56,0.7,0.7,1.26c0.14,0.56,0.28,1.12,0.7,1.54l0.14-0.14h-0.14l0,0l-0.14,0.28l-0.42,0.28l0.14,0.14v-0.14
		c-0.56,0.14-1.26,0.14-1.96,0.28c-0.7,0.14-1.4,0.28-1.82,0.7l0,0l0,0v0.28c0,0.56,0.42,0.98,0.84,1.26l0.14-0.14l-0.14,0.14
		c1.12,0.56,2.38,0.7,3.65,0.98l0,0l0,0h0.56c0.7,0,1.4-0.14,1.96-0.14c0.28,0,0.56,0,0.84,0.14v-0.14l-0.14-0.14l-0.28,0.56
		l-3.37,2.24l0.14,0.14l-0.14-0.14c-1.54,0.56-3.23,0.98-4.63,1.68l0.14,0.14v-0.14c-0.14,0-0.42,0-0.56,0
		c-0.7,0-1.4-0.42-1.96-0.98c-0.7-0.56-1.26-1.12-2.24-1.12h-0.14v0.14v-0.14c-0.84,0-1.54,0.28-2.1,0.84l0,0l0,0
		c-0.42,0.42-0.56,0.98-0.56,1.4c0,0.14,0,0.42,0,0.56l0,0l0,0c0.14,0.42,0.56,0.56,0.84,0.56l0.28,0.14l0.14,0.28h0.14h-0.14
		c0,1.82-1.68,3.23-1.82,5.33h0.14h-0.14v0.28c0,0.42,0.14,0.98,0.7,1.26l0.14-0.14l-0.14,0.14l0.56,0.14c0.28,0,0.7-0.14,0.98-0.42
		c0.28-0.28,0.28-0.56,0.42-0.7c0.14-0.14,0.28-0.28,0.56-0.42v-0.14v0.14c0.28,0,0.7,0,0.98,0c0.84,0,1.82-0.14,2.38-0.84
		l-0.14-0.14v0.14l0,0l0.42,0.14l-0.28,0.84c0,0.28,0,0.56,0,0.84s0.28,0.56,0.56,0.7l0,0l0,0h0.14c0.84,0,1.54-0.42,2.1-1.12
		c0.56-0.56,0.98-1.4,1.26-1.96l-0.14-0.14v0.14c0.56-0.14,1.12-0.42,1.68-0.42c0.14,0,0.42,0,0.56,0.14l0.14-0.14h-0.14v0.42
		c0,0.84-0.7,1.54-0.98,2.67l0,0l0,0c0.14,0.42,0.56,0.7,0.84,0.84l0,0l0,0c2.24-0.28,3.37-2.24,4.63-3.79l0,0l0,0
		c0.14-0.28,0.14-0.42,0.28-0.56c0.14-0.14,0.28-0.28,0.56-0.28v-0.14v0.14c0.14,0,0.42,0.14,0.56,0.14c0.7,0,1.12-0.42,1.54-0.98
		c0.42-0.42,0.7-0.98,1.12-1.26l-0.14-0.14v0.14h0.42v-0.14h-0.14v0.14c0,0.14-0.14,0.42-0.14,0.7l0.14,0.42l0,0l0,0
		c0.28,0.28,0.56,0.42,0.84,0.42c0.56,0,1.12-0.42,1.54-0.56l0,0l1.54-0.98l-0.14-0.14v0.14c1.68,0.56,3.51,0.98,5.33,1.4v-0.14
		v0.14c0.42,0.14,0.56,0.42,0.56,0.84c0,0.28-0.14,0.7-0.14,1.12c0,0.28,0.14,0.7,0.42,0.98l0.14-0.14l-0.14-0.14
		c-0.14,0.42-0.7,0.56-1.26,0.56l0,0l0,0c-2.95,0.42-6.59-0.42-9.12,1.96l0,0l-1.4,1.4l0.14,0.14v-0.14
		c-2.38,0.14-3.65,2.1-5.61,2.38l0,0l0,0c-0.42,0.28-0.84,0.28-1.4,0.28c-0.42,0-0.7,0-1.12,0c-0.7,0-1.4,0.14-1.96,0.98v0.14v0.14
		c0.7,1.54,2.52,2.1,4.07,2.52v-0.14l-0.14,0.14c0.42,0.14,0.84,0.14,1.12,0.14c0.42,0,0.56,0.14,0.7,0.42l0.14-0.14h-0.14
		c0.14,0.7,0.28,1.68,1.12,1.96l0,0l0,0h0.28c0.28,0,0.42-0.14,0.56-0.28l0.42-0.14l0.28,0.14l0.14-0.14l-0.14,0.14
		c0.84,1.12,1.96,1.54,2.52,2.52l0.14-0.14l-0.14-0.14c-0.14,0.28-0.42,0.42-0.84,0.42c-0.42,0-0.98-0.14-1.54-0.14v0.14l0.14-0.14
		h-0.14l0,0l0,0c-0.7,0.14-1.4,0.28-2.1,0.28c-0.56,0-1.12-0.14-1.54-0.56l0,0l0,0c-1.26-0.98-2.38-2.52-4.35-2.52l0,0l0,0
		c-0.98,0.28-2.24,0.7-2.52,1.96v0.14c0,0.7,0.7,0.98,0.84,1.26l0.14-0.14l-0.14-0.14c-1.12,0.7-2.24,1.82-2.24,3.37
		c0,0.28,0,0.42,0.14,0.7l0,0l0,0l0.28,0.56c0.14,0.14,0.42,0.28,0.7,0.28c0.56,0,0.98-0.28,1.26-0.28l0.28,0.14l0.14-0.14h-0.14
		c0,0.56,0,1.12,0.14,1.82c0.14,0.56,0.42,1.26,1.12,1.54l0,0l0,0c0.84-0.14,1.4-0.7,1.96-0.7c0.14,0,0.42,0,0.7,0.28l0,0l0,0
		c0.28,0.14,0.42,0.14,0.7,0.14c0.84,0,1.54-0.7,2.24-0.98v-0.14v0.14c0.7,0,1.12,0.28,1.4,0.7c0.42,0.42,0.56,0.98,0.84,1.54l0,0
		l0,0c0.7,0.56,1.68,1.4,2.67,1.4c0.28,0,0.56-0.14,0.84-0.28l0,0l0,0c0.28-0.28,0.28-0.7,0.28-0.98c0-0.56-0.14-1.12-0.14-1.54
		c0-0.42,0.14-0.7,0.56-0.98l-0.14-0.14v0.14c0.28-0.14,0.56-0.14,0.84-0.14c0.42,0,0.7,0,1.12,0c0.28,0,0.56,0,0.84-0.14v-0.14
		v0.14c0.42,0,0.84,0.14,1.4,0.14c1.12,0,2.38-0.28,3.09-1.54l-0.14-0.14l0.14,0.14l1.4-2.38l0.28-1.54h-0.14v0.14h0.14
		c0.42,0,1.12,0.42,1.68,0.42c0.42,0,0.7-0.28,0.84-0.7l0,0l0,0c-0.28-0.98-0.56-1.82-0.56-2.95c0-0.42,0-0.84,0.14-1.26h-0.14h0.14
		c0.28-0.98,0.7-1.96,1.4-2.67l-0.14-0.14l-0.14,0.14l0.28,0.14l0.14-0.14h-0.14c0.42,1.68,0.42,3.51,1.26,5.05l0.14-0.14h-0.14
		c-0.14,1.54-0.98,2.95-1.12,4.49h0.14h-0.14c-0.42,1.54-1.54,2.95-2.95,3.65l0,0l0,0c-0.28,0.28-0.56,0.56-0.56,0.98l0.14,0.42l0,0
		l0,0c0.28,0.56,0.7,0.56,1.26,0.56c0.28,0,0.56,0,0.7,0h0.42l0,0l0,0c2.24-0.28,4.21-1.4,5.75-2.95l-0.14-0.14v0.14h0.56
		c0.56,0,0.98-0.28,1.4-0.42c0.42-0.28,0.7-0.42,1.12-0.42c0.14,0,0.42,0,0.56,0.14l0.14-0.14l-0.14,0.14
		c0.42,0.28,0.98,0.42,1.54,0.42c0.56,0,1.12-0.14,1.54-0.14c0.7,0,1.26,0.14,1.4,1.12h0.14h-0.14v0.42c0,0.56,0.14,1.12,0.14,1.68
		c0,0.7-0.14,1.12-0.98,1.4v0.14v-0.14c-1.12-0.14-2.52-1.4-4.07-1.4c-0.56,0-1.26,0.28-1.82,0.98l0.14,0.14l-0.14-0.14
		c-0.28,0.28-0.56,0.7-0.56,1.26l0.14,0.56l0,0l0,0c0.14,0.28,0.42,0.7,0.42,0.84l-0.14,0.42l0,0l0,0c-0.42,0.7-0.84,1.4-0.84,2.38
		c0,0.28,0,0.56,0.14,0.7l0,0l0,0c0.28,0.56,0.84,0.7,1.26,0.7c0.28,0,0.42,0,0.56,0l0,0l0,0l0.56-0.14c0.7,0,1.54,0.56,2.38,0.7
		v-0.14l-0.14,0.14c0.84,0.7,1.68,1.54,2.95,1.54h0.14l0,0l0,0c0.28-0.14,0.42-0.42,0.56-0.7c0.14-0.28,0.14-0.42,0.28-0.7
		l-0.14-0.14l0.14,0.14c0.28-0.28,0.84-0.42,1.4-0.56c0.56-0.28,0.98-0.56,0.98-1.4h-0.14h0.14c0.14-0.98,0.98-1.82,1.96-2.38
		l-0.14-0.14v0.14h0.14c0.28,0,0.84-0.14,1.4-0.42s1.26-0.56,1.54-1.12l0.14-0.14l-0.14-0.14L74.77,296.14L74.63,296
		c-0.28,0.42-0.7,0.7-1.26,0.98c-0.56,0.28-1.12,0.42-1.26,0.42l0,0v0.14v-0.14l0,0v0.14v-0.14h-0.14h-0.14
		c-0.98,0.56-1.82,1.54-2.1,2.67l0,0l0,0c0,0.56-0.28,0.84-0.84,0.98c-0.42,0.14-1.12,0.28-1.54,0.7l0,0l0,0
		c-0.14,0.28-0.28,0.56-0.42,0.7c-0.14,0.28-0.14,0.42-0.28,0.56l0.14,0.14v-0.14h-0.14c-0.98,0-1.82-0.7-2.67-1.4l0,0l0,0
		c-0.7,0-1.54-0.7-2.52-0.7c-0.28,0-0.42,0-0.7,0.14l0.14,0.14v-0.14h-0.56c-0.42,0-0.7-0.14-0.84-0.42l-0.14,0.14l0.14-0.14
		c-0.14-0.14-0.14-0.42-0.14-0.56c0-0.7,0.42-1.54,0.84-2.1l-0.14-0.14l0.14,0.14c0.28-0.14,0.28-0.42,0.28-0.7
		c0-0.42-0.28-0.84-0.42-1.12l-0.14,0.14l0.14-0.14l-0.14-0.42c0-0.28,0.14-0.7,0.42-0.98l0,0l0,0c0.56-0.56,0.98-0.84,1.54-0.84
		c1.26,0,2.67,1.12,3.93,1.4l0,0l0,0c0.98-0.28,1.26-0.98,1.26-1.68c0-0.56-0.14-1.26-0.14-1.68v-0.28l0,0l0,0
		c-0.28-1.12-0.98-1.4-1.82-1.4c-0.56,0-1.12,0.14-1.54,0.14c-0.42,0-0.98-0.14-1.26-0.28l0,0l0,0c-0.28-0.14-0.56-0.28-0.84-0.28
		c-0.56,0-0.84,0.28-1.26,0.42c-0.42,0.28-0.84,0.42-1.26,0.42h-0.42h-0.14l-0.14,0.14c-1.4,1.54-3.37,2.52-5.47,2.81v0.14v-0.14
		h-0.42c-0.28,0-0.56,0-0.7,0c-0.42,0-0.7,0-0.84-0.42l-0.14,0.14l0.14-0.14v-0.28c0-0.28,0.14-0.56,0.42-0.7l-0.14-0.14l0.14,0.14
		c1.54-0.84,2.81-2.1,3.23-3.93l0,0l0,0c0.14-1.54,0.98-2.95,1.12-4.49l0,0l0,0c-0.7-1.54-0.84-3.23-1.26-5.05v-0.14l-0.42-0.14
		h-0.14l-0.14,0.14c-0.7,0.7-1.26,1.68-1.54,2.81l0,0l0,0c0,0.42-0.14,0.98-0.14,1.4c0,0.98,0.14,1.96,0.56,2.95h0.14h-0.14
		c-0.14,0.42-0.28,0.42-0.42,0.42c-0.42,0-1.12-0.42-1.68-0.42h-0.28h-0.14l-0.28,1.54l-1.4,2.38l0,0c-0.56,1.12-1.54,1.4-2.67,1.4
		c-0.42,0-0.84,0-1.26-0.14l0,0l0,0c-0.28,0-0.42,0.14-0.7,0.14c-0.42,0-0.7,0-1.12,0c-0.28,0-0.56,0-0.98,0.14l0,0l0,0
		c-0.7,0.28-0.84,0.84-0.84,1.26c0,0.56,0.14,0.98,0.14,1.54c0,0.28,0,0.56-0.28,0.84l0.14,0.14l-0.14-0.14
		c-0.28,0.14-0.42,0.14-0.7,0.14c-0.84,0-1.82-0.7-2.52-1.26l-0.14,0.14l0.14-0.14c-0.28-0.56-0.56-1.12-0.84-1.68
		c-0.42-0.56-0.98-0.84-1.82-0.84l0,0l0,0c-0.84,0.28-1.4,0.98-2.1,0.84l-0.56-0.14l-0.14,0.14l0.14-0.14
		c-0.28-0.28-0.56-0.28-0.84-0.28c-0.84,0-1.4,0.56-1.96,0.7v0.14l0.14-0.14c-0.56-0.28-0.7-0.7-0.84-1.26s0-1.26-0.14-1.82v-0.14
		H28.2l-0.56-0.14c-0.56,0-0.98,0.28-1.26,0.28c-0.14,0-0.28,0-0.42-0.14l-0.28-0.42l-0.14,0.14h0.14c0-0.14-0.14-0.42-0.14-0.56
		c0-1.26,1.12-2.24,2.1-3.09l0.14-0.14l-0.14-0.14c-0.28-0.42-0.84-0.7-0.84-1.12v-0.14c0.14-0.98,1.12-1.4,2.24-1.68v-0.14v0.14
		c1.82,0,2.81,1.4,4.07,2.38l0.14-0.14l-0.14,0.14c0.42,0.56,1.12,0.84,1.82,0.84s1.54-0.28,2.1-0.28v-0.14l-0.14,0.14h0.14l0,0l0,0
		c0.42,0,0.98,0.14,1.54,0.14c0.42,0,0.84-0.14,1.12-0.56v-0.14v-0.14c-0.7-0.98-1.82-1.54-2.52-2.52l0,0l0,0l-0.42-0.14
		c-0.28,0-0.42,0.14-0.56,0.28l-0.42,0.14h-0.14v0.14v-0.14c-0.7-0.28-0.84-0.98-0.98-1.68l0,0l0,0c-0.28-0.42-0.7-0.56-0.98-0.56
		c-0.42,0-0.84,0-0.98-0.14l0,0l0,0c-1.54-0.42-3.23-0.84-3.79-2.24l-0.14,0.14l0.14,0.14c0.42-0.56,0.84-0.7,1.54-0.7
		c0.42,0,0.7,0,1.12,0c0.56,0,1.12,0,1.68-0.42l-0.14-0.14v0.14c2.24-0.42,3.37-2.24,5.47-2.38h0.14l1.54-1.54l-0.14-0.14l0.14,0.14
		c2.38-2.24,5.75-1.4,8.84-1.82v-0.14v0.14c0.7,0,1.4-0.14,1.68-0.7v-0.14l-0.14-0.14c-0.14-0.14-0.28-0.42-0.28-0.7
		c0-0.42,0.14-0.7,0.14-1.12s-0.14-0.98-0.84-1.12l0,0l0,0c-1.82-0.42-3.65-0.84-5.33-1.4h-0.14l-1.54,0.98l0.14,0.14v-0.14
		c-0.56,0.14-1.12,0.56-1.4,0.56c-0.14,0-0.28,0-0.56-0.28l-0.14,0.14l0.14-0.14v-0.28c0-0.14,0.14-0.42,0.14-0.7v-0.28v-0.14H40.4
		l0,0l0,0c-0.42,0.28-0.84,0.98-1.12,1.4c-0.42,0.42-0.7,0.84-1.26,0.84h-0.42l0,0l0,0c-0.42,0-0.7,0.14-0.84,0.42
		c-0.14,0.28-0.28,0.42-0.42,0.7l0.14,0.14l-0.14-0.14c-1.26,1.54-2.38,3.37-4.35,3.65v0.14v-0.14c-0.28,0-0.56-0.28-0.56-0.42
		h-0.14h0.14c0.14-0.84,0.98-1.68,0.98-2.67v-0.42v-0.14l0,0c-0.28-0.14-0.56-0.28-0.84-0.28c-0.56,0-1.26,0.28-1.68,0.42h-0.14
		v0.14c-0.42,0.56-0.84,1.4-1.26,1.96c-0.42,0.56-0.98,0.98-1.82,0.98h-0.14v0.14l0.14-0.14c-0.14-0.14-0.28-0.14-0.28-0.42
		c0-0.14,0-0.42,0-0.7c0-0.42-0.42-0.84-0.98-0.84h-0.14l0,0l0,0c-0.56,0.56-1.26,0.7-2.1,0.7c-0.28,0-0.56,0-0.98,0l0,0l0,0
		c-0.42,0-0.7,0.28-0.84,0.56c-0.14,0.28-0.28,0.42-0.42,0.7c-0.14,0.14-0.42,0.28-0.7,0.28l-0.28-0.14l0,0l0,0
		c-0.42-0.14-0.56-0.56-0.56-0.84v-0.14l0,0l0,0c0.14-1.96,1.82-3.23,1.82-5.33l0,0l0,0c0-0.28-0.14-0.42-0.14-0.56
		c-0.14-0.14-0.42-0.14-0.56-0.28c-0.14-0.14-0.28-0.14-0.42-0.28l-0.14,0.14h0.14v-0.56c0-0.42,0.14-0.84,0.42-1.12l-0.14-0.14
		l0.14,0.14c0.56-0.42,0.98-0.7,1.82-0.7l0,0l0,0h0.14c0.7,0,1.4,0.42,1.96,0.98c0.7,0.56,1.26,1.12,2.24,1.12
		c0.14,0,0.42,0,0.56-0.14l0,0l0,0c1.4-0.7,2.95-1.12,4.49-1.68l0,0l3.37-2.38l0.42-0.56l0.14-0.28h-0.28
		c-0.28-0.14-0.56-0.14-0.84-0.14c-0.7,0-1.4,0.14-1.96,0.14h-0.42v0.14v-0.14c-1.26-0.14-2.52-0.28-3.51-0.84l0,0l0,0
		c-0.28-0.14-0.7-0.56-0.7-0.84v-0.14h-0.14l0.14,0.14c0.42-0.42,0.98-0.56,1.68-0.7c0.7,0,1.4,0,1.96-0.28l0,0l0,0l0.42-0.28
		c0.14-0.14,0.42-0.28,0.42-0.56v-0.14l0,0l0,0c-0.42-0.42-0.56-0.84-0.7-1.4c-0.14-0.56-0.28-1.12-0.84-1.54l0,0l0,0l-0.42-0.14
		c-0.42,0-0.7,0.28-0.98,0.56c-0.28,0.28-0.56,0.42-0.84,0.42h-0.28v0.14l0.14-0.14c-0.56-0.28-1.12-1.12-1.54-1.82v-0.14h-0.14
		c-1.4,0.14-2.52,0.98-3.93,0.98l0,0l0,0c-0.42,0-0.84,0.14-1.26,0.14c-0.42,0-0.84-0.14-0.98-0.42l-0.14,0.14h0.14l-0.14-0.42
		c0-0.28,0.14-0.56,0.28-0.7l-0.14-0.14l0.14,0.14c1.4-0.7,2.52-1.68,3.51-2.95l0,0l0,0c0-0.42,0.28-0.98,0.28-1.54
		c0-0.28,0-0.56-0.14-0.84l-0.14,0.14h0.14c0-0.28-0.14-0.56-0.28-0.7c-0.14-0.14-0.42-0.14-0.56-0.14c-0.28,0-0.7,0.14-0.98,0.14
		h-0.14l0,0l0,0h-0.28c-0.56,0-1.26-0.28-1.96-0.28c-0.28,0-0.56,0-0.7,0.14l0.14,0.14v-0.14c-0.56,0-0.84-0.7-1.12-1.26l-0.14,0.14
		l0.14,0.14l0.7-1.68l-0.14-0.14l0.14,0.14c0.28-0.42,0.84-0.7,1.12-1.26v-0.14v-0.14c-0.42-0.56-1.12-1.4-1.12-2.1l0,0l0,0
		c-0.14-0.56-0.7-0.7-0.98-0.84c-0.42-0.14-0.56-0.28-0.7-0.7v-0.14h-0.14l0.14,0.14c0.28-0.56,0.84-0.84,1.4-1.26l-0.14-0.14v0.14
		c0.28-0.14,0.42-0.14,0.7-0.14c0.84,0,1.68,0.42,2.67,0.42h0.14l0.14-0.84l0,0l0,0c0-0.14,0.14-0.28,0.28-0.42
		c0.14-0.14,0.42-0.14,0.7-0.14v-0.14v0.14c0.98,0.28,1.68,0.98,1.96,1.82c0.42,0.84,0.56,1.82,0.84,2.81l0,0l0,0
		c1.12,1.4,2.1,3.09,3.65,4.21c2.52,1.82,5.05,3.37,8,4.35l0,0l0.7,0.14h0.14l0,0c0.28-0.28,0.42-0.7,0.42-1.12
		c0-0.42,0.14-0.84,0.14-1.12l-0.14-0.14l0.14,0.14c0.14-0.28,0.28-0.7,0.42-1.12c0.14-0.28,0.42-0.56,0.7-0.56v-0.14v0.14
		c0.42,0,0.56,0.28,0.84,0.56s0.42,0.7,0.7,0.98l0,0l0,0c0.56,0.56,1.4,0.84,2.24,0.84c0.28,0,0.7,0,0.98-0.14h0.14v-0.14v-0.14
		c0-0.42-0.28-0.56-0.56-0.7c-0.28-0.14-0.42-0.28-0.42-0.56l0,0h-0.14l0.14,0.14c0.42-0.56,0.98-1.26,0.98-1.96l-0.14-0.56l0,0l0,0
		c-1.54-1.26-3.51-1.82-4.77-3.23l-0.14,0.14l0.14-0.14c-0.28-0.42-0.42-0.98-0.42-1.54v-0.28h-0.14l0.14,0.14
		c0.42-0.84,0.7-1.96,1.54-2.24l0,0c0.28-0.14,0.42-0.14,0.7-0.14c0.56,0,0.98,0.14,1.4,0.42l0.14-0.14l-0.14,0.14
		c0.28,0.28,0.42,0.56,0.42,0.84v0.28h0.14h-0.14c0,0.28-0.14,0.56-0.14,0.7c0,0.84,0.42,1.68,1.26,2.1l0,0l0,0
		c0.14,0,0.42,0.28,0.7,0.28s0.42-0.14,0.56-0.42l0,0l0,0c0-0.28,0-0.7,0-0.98c0-0.56,0-1.12,0.42-1.54l-0.14-0.14l0.14,0.14
		c0.84-0.84,2.1-0.98,3.51-1.12l0,0l0,0c0.7-0.14,1.4-0.56,2.1-0.56h0.42v-0.14v0.14c1.96,0.7,3.79,1.96,6.17,1.96v-0.14v0.14
		c0.28,0.14,0.28,0.14,0.42,0.28c0.14,0.28,0.14,0.56,0.14,0.98s0.28,0.84,0.84,0.98v-0.14l-0.14,0.14
		c0.14,0.28,0.14,0.56,0.14,0.84c0,0.84-0.56,1.68-0.7,2.52l0,0l0,0c0,0.56,0,0.98,0,1.54c0,1.26,0.14,2.52,0.42,3.79h0.14h-0.14
		c0,0.42-0.14,0.56-0.56,0.7c-0.28,0.14-0.7,0.42-0.84,0.84l0,0l0,0c-0.14,0.56-0.14,1.12-0.14,1.82c0,1.26,0.14,2.38,0.56,3.65
		h0.14H59.2c0,0.14-0.14,0.28-0.14,0.42c-0.14,0.14-0.42,0.14-0.7,0.28c-0.28,0.14-0.56,0.28-0.56,0.7V257l0,0l0,0
		c0.7,1.4,2.24,2.24,2.95,3.37l0.14-0.14h-0.14c0.42,0.98,0.84,1.96,0.84,2.95c0,0.56-0.14,1.12-0.42,1.54l0.14,0.14v-0.14h-0.14
		c-0.42,0-0.7-0.28-0.84-0.7c-0.28-0.42-0.42-0.98-0.84-1.4l0,0l0,0l-0.42-0.14l-0.42,0.14h-0.14v0.14c0.14,1.54,0.84,2.67,1.4,3.93
		l0,0l0,0c1.68,3.23,4.07,7.86,8.28,8.14l0,0l0,0c0.98,0,2.52-0.14,2.95-1.4l0,0l0,0c0.14-0.42,0.14-0.84,0.14-1.26
		c0-2.24-1.68-3.93-2.67-5.75l0,0l0,0c-2.38-2.38-3.79-5.33-3.79-8.84h-0.14h0.14c0.28-6.03,6.17-9.82,10.94-12.2l0,0l0,0
		c1.26-0.84,2.81-1.4,4.21-2.24c1.4-0.84,2.38-2.1,2.38-3.93v-0.42H82.2h0.14c0-0.42-0.28-0.84-0.56-1.12
		c-0.28-0.28-0.42-0.56-0.42-0.84l0.14-0.42l-0.14-0.14v0.14c0.28,0,0.42-0.14,0.7-0.14c0.7,0,1.4,0.28,1.96,0.56l0.14-0.14
		l-0.14,0.14c1.12,0.98,1.82,2.52,1.82,4.07c0,0.7-0.14,1.26-0.28,1.82v0.14v0.14c0.7,0.98,1.68,1.82,1.68,2.95v0.42h0.14
		l-0.14-0.14c-0.14,0.42-0.42,0.56-0.7,0.56c-0.56,0-1.26-0.42-1.96-0.42h-0.42l0,0l0,0c-1.4,0.84-1.82,2.67-3.23,3.09v0.14v-0.14
		c-0.28,0.14-0.56,0.14-0.84,0.14c-0.84,0-1.68-0.42-2.38-0.84l0,0l0,0c-0.28-0.14-0.56-0.14-0.84-0.14c-1.26,0-2.24,1.12-3.23,1.4
		l0,0l0,0c-1.68,1.54-4.07,3.51-4.07,6.17v0.42h0.14h-0.28c0,0.14,0.14,0.42,0.28,0.42l0.42,0.14h0.14l0,0l0,0
		c1.12-1.12,2.67-1.68,4.21-2.38l0,0l0,0c1.12-1.12,2.52-2.1,4.07-2.1c0.42,0,0.7,0,1.12,0.14v-0.14v0.14
		c0.42,0.14,0.84,0.42,0.98,0.7h0.14l-0.14-0.14c-0.14,0.28-0.56,0.56-0.84,0.7c-0.42,0.14-0.84,0.28-1.26,0.56l0.14,0.14v-0.14
		c-1.26,0.42-1.54,1.96-1.96,2.95l0.14,0.14l-0.14-0.14c-0.28,0.56-0.7,0.84-1.26,1.26c-0.56,0.28-1.12,0.56-1.54,1.12l0.14,0.14
		l-0.14-0.14c-0.14,0.14-0.14,0.28-0.14,0.56l0.14,0.28l0.42,0.14l0,0l0,0c1.96-1.26,4.49-0.98,6.73-2.24l-0.14-0.14l0.14,0.14
		c0.98-0.42,1.54-1.4,2.38-1.4v-0.14v0.14c0.14,0,0.28,0.14,0.28,0.28c0,0.14,0.14,0.42,0.28,0.56l0.14-0.14h-0.14v0.14
		c0,1.4-0.84,2.38-1.82,3.23c-1.12,0.7-2.52,1.4-3.65,2.1l0,0l0,0l-0.28,0.28c-0.14,0.14-0.28,0.28-0.28,0.56
		c0,0.14,0.14,0.42,0.28,0.42l0,0l0,0h0.42c1.12,0,2.24,0.42,3.23,0.98l0.14-0.14h-0.14v0.28c0,0.28-0.14,0.42-0.28,0.56
		c-0.42,0.42-1.68,0.42-2.24,0.98l0,0l0,0c-0.56,0.56-0.98,1.26-0.98,2.1l0,0l0,0c0,1.96-0.14,3.79-1.68,4.91l0.14,0.14v-0.14
		c-1.54,0.42-2.52,1.68-3.51,2.95l0.14,0.14l-0.14-0.14c-1.12,0.98-2.81,1.54-4.35,1.54c-0.56,0-1.12,0-1.68-0.14h-0.14l-0.28,0.28
		l-0.14,0.14l0.14,0.14c0.84,1.26,2.24,1.68,3.65,2.1c1.4,0.28,2.81,0.56,3.93,1.4l0.14-0.14l-0.14,0.14c0.7,0.7,1.54,1.4,1.4,2.24
		v0.14h0.14l-0.14-0.14c-0.28,0.28-0.56,0.42-0.84,0.42c-0.7,0-1.54-0.7-2.52-0.7h-0.56l0,0l0,0c-0.14,0-0.28,0-0.56,0.14
		l-0.28,0.14l-0.14,0.42v0.14h0.14c0.98,0.7,2.1,0.84,2.95,1.4l0,0l0,0c1.12,0.84,0.84,2.24,1.12,3.51l0,0l0,0
		c0.28,0.42,0.42,0.7,0.42,0.98c0,0.56-0.28,1.12-0.7,1.68c-0.42,0.56-0.84,1.12-0.84,1.96v0.42l0,0l0,0
		C73.78,295.3,74.35,295.86,74.77,296.14L74.77,296.14v-0.28l0,0v0.42l0,0v-0.42l0,0v0.42l0,0v-0.42l0,0H74.2l0.42,0.42
		L74.77,296.14L74.63,296L74.77,296.14z"/>
	<path id="XMLID_51_" class="st2" d="M42.36,234.98c-0.7,0.14-0.84,0.84-0.98,1.54c-0.14,0.84,0.42,1.54,0.98,2.1
		c1.82,0.84,3.37,2.24,5.05,3.37h0.56c-0.98-1.82-3.23-2.38-4.63-3.93c-0.56-0.7-0.56-1.68-0.28-2.52
		C43.06,235.12,42.78,234.98,42.36,234.98z M52.32,234.98c-1.26,0.84-3.09,0.42-4.21,1.26c-0.7,0.56,0.42,1.4-0.42,1.96
		c-0.14,0.42,0.14,0.84,0.28,1.12c1.12,0.98,2.67,2.24,2.24,3.93c-0.84,2.1-2.1-0.42-3.23-0.42c-0.42,0.14-0.7,0.42-0.7,0.98
		c0.14,0.28,0.42,0.28,0.7,0.28c0.28,0.14,0.7,0.42,0.56,0.84c-0.14,0.84-0.7,1.82-1.68,1.96c-1.12,0.42-2.52,0.28-3.51-0.28
		c-0.56-0.14-0.84-1.12-1.54-0.98c-0.98,0.98-0.14,2.24,0.14,3.23c-2.38,2.38-4.21,5.47-7.15,7.29c-0.7,0.42-1.68,0.56-2.24,1.12
		c0.28,0.14,0.7,0.28,1.12,0.28c2.52,0,5.05-0.42,7.15-1.68c0.84-0.42,1.4-1.26,2.24-1.54c1.12,0.42,0.14,1.68,0.56,2.38
		c0.56,0.14,0.84-0.42,1.26-0.7c0.42-0.28,0.84-0.42,0.98,0.14c0.84,2.52,0.14,5.33-0.7,7.57c0.56,0.14,0.56-0.42,0.98-0.56
		c1.68-2.52,3.79-4.91,4.21-7.86c1.4-0.7,1.4,1.54,2.24,2.1c0.7-0.56,0.84-1.82,0.98-2.67c0.14-0.28,0.42-0.14,0.7,0
		c0.7,1.26,1.68,2.67,2.95,3.37c0.84,0.28,1.68,0.84,2.52,0.84c0-1.12-1.26-1.4-1.96-2.24c-0.28-0.84-0.84-1.54-0.84-2.67
		c0.28-0.56,0.98-0.56,1.4-0.84c0.14-0.84-0.28-1.68,0-2.67c0.14-1.12-0.7-3.37,0.98-3.93l0.14-2.81c-0.14-0.42-0.7-0.56-0.7-0.98
		c0-0.84,0.7-0.98,0.98-1.54c0.14-0.7,0.42-1.4,0.42-2.1c0-0.28-0.28-0.42-0.42-0.42c-0.84,0-0.7-0.98-0.98-1.4
		C55.83,236.66,54.43,235.12,52.32,234.98z M23.85,235.54c-0.14,0.14-0.28,0.28-0.28,0.7c-0.14,0.28,0,0.98,0.42,1.26
		c0.14,0.14,0.56,0.42,0.84,0.14c0.14-0.28,0-0.56,0-0.98C24.97,236.24,24.27,235.26,23.85,235.54z M20.34,236.1
		c-0.42,0.42,0.14,1.26,0,1.96c0.14,0.98,1.4,0.56,1.96,1.4c0.84,1.4-1.12,1.4-1.54,2.24c-0.56,0.98,0.84,0.56,1.12,1.4
		c0.84,0.42,1.4-0.56,2.24-0.42c0.84,0.28,1.4,1.26,1.54,2.24c0.84,1.96-0.84,3.65-1.68,5.19c1.4,0.28,2.38-1.12,3.51-1.54
		c0.98,0.28,0.14,1.54,0.84,2.1c0.7,0.42,1.26-0.42,1.96-0.28c2.1,0.14,1.96,2.52,3.23,3.65c0.28,0.14,0.56,0.14,0.84,0.14
		c1.26-1.12,2.1-2.52,3.37-3.79c0.42-0.42,0.84-0.98,0.7-1.54c-3.65-0.98-6.73-3.23-9.68-5.61c-1.26-1.54-2.81-3.51-4.63-4.35
		C23,237.5,22.02,235.96,20.34,236.1z M51.9,236.38c0.14,0,0.42,0.14,0.56,0.28c0.7,0.42,1.4,1.12,1.96,1.68
		c0.14,0.42-0.14,0.84-0.7,0.98c-0.84,0-1.68,0-2.24-0.7c-0.56-0.42-0.28-1.26-0.14-1.82C51.34,236.52,51.62,236.38,51.9,236.38z
		 M83.74,237.08c-0.14,0.28-0.14,0.56-0.14,0.98c-0.28,3.37-3.65,5.19-6.17,6.59c-4.77,2.24-10.66,5.47-11.22,11.36
		c-0.56,6.17,7.29,9.4,6.45,15.71c-0.28,1.26-1.4,2.1-2.24,2.95c-3.37,0.98-6.59-1.12-8.7-3.79c-2.67-3.23-4.07-7.01-5.05-10.94
		c-0.7-0.84-1.82-1.12-2.52-2.1c-1.54-0.7-1.4,1.54-2.95,1.54c-0.84,0.14-0.56-0.98-1.26-0.84l-1.82,2.67
		c-0.42,0.98-1.68,1.68-1.82,2.81c0.56,0.98,2.24,0.56,3.23,0.98c1.54,0.28,2.67,1.68,3.93,2.38c2.38,2.1,3.09,5.05,2.67,8.28
		c-0.7,2.67,0.28,5.19,1.12,7.57c0.42,0.98-0.28,1.96-0.84,2.81c-0.28,1.4-0.7,2.95-1.4,4.21c-0.14,0.56-0.7,1.12-0.42,1.54
		c1.96-0.42,3.23-2.24,4.07-3.93c0.42-0.42,0.98,0,1.26,0.28c0.42,0.28,0.56-0.28,0.98-0.28c0.42-0.14,0.84,0.14,1.12,0.28
		c0.84,0.84,2.38,0.42,3.51,0.84c1.26,0.14,2.67,0.98,2.95,2.24c-0.14,0.98,0.42,1.96,0.28,3.23c-0.84,2.52-3.79,2.81-6.03,3.09
		c-0.42,0.28-1.12,0.56-0.98,1.12c0.28,0.42,0.7,0.7,1.12,0.84c0.98,0.56,1.4-0.84,2.38-0.7c0.7,0.28,0.14,0.98,0.56,1.54
		c0.56,0.14,0.98-0.14,1.68-0.14c0.84-0.14,1.26-0.84,1.4-1.68c0.42-0.98,1.68-1.26,2.24-2.24c0.42-0.28,1.12,0.14,1.54-0.28
		c-0.7-1.4-0.14-2.95,0.84-4.07c0.28-0.98,0-1.82-0.42-2.67v-1.54c-0.42-1.26-1.96-1.12-2.95-1.54c-0.98-0.84-2.67-1.4-2.95-2.95
		c0.14-0.14,0.28-0.56,0.42-0.42c1.4,0.56,2.95,0.28,4.35,0.14c0.42,0.14,0.98,0.28,0.98-0.28c-0.14-0.28-0.42-0.56-0.7-0.56
		c-2.24-0.7-4.63-0.7-6.31-2.38c-0.7-1.12-1.82-1.96-1.96-3.37c1.12-1.26,2.24,0.56,3.65,0.42c1.96,0.28,3.93-0.14,5.05-1.68
		c0.7-0.56,0.56-1.82,1.54-2.1c3.65-0.56,1.4-4.77,3.51-6.73c0.28-0.56,1.54-0.56,1.26-1.4c-1.12-0.14-2.1,0.42-3.23,0.56
		c-0.28-0.14-0.56-0.28-0.56-0.7c0.7-2.24,2.95-4.21,5.19-4.91c0.28,0,0.7-0.42,0.56-0.7c-2.67,0.14-5.47,0.42-7.29,2.67
		c-0.42,0.28-0.98,0.84-1.54,0.42c-0.42-0.42-0.42-1.26-0.28-1.96c0.14-1.26,1.12-2.24,2.1-3.09c1.26-0.42,1.82-1.82,2.24-2.95
		c-0.14-0.28-0.28-0.14-0.42-0.14c-0.84,0.56-1.96,0.98-2.95,1.26c-1.68,0.42-2.24,1.96-2.95,3.23c-0.28,0.14-0.7,0.14-0.98,0
		c-1.12-1.26-1.26-2.95-0.84-4.49c0.98-4.07,4.49-6.31,8-8c1.26-0.56,2.24,0.56,3.37,0.84c2.67,0.14,3.09-3.37,5.61-3.51
		c0.14-0.56-0.7-0.84-0.98-1.4c-0.28-0.98,0.84-1.68,0.56-2.81C84.73,238.63,84.73,237.5,83.74,237.08z M57.37,239.19
		c0.28-0.14,0.84,0,0.98,0.28c0,0.56-0.28,1.12-0.56,1.54c-0.28,0.28-0.7,0.14-0.84-0.28C56.81,240.17,56.95,239.47,57.37,239.19z
		 M53.16,244.1c0.28,0,0.56,0.14,0.7,0.28l-0.14,1.12c-1.12,1.26-1.26,3.37-2.95,4.21c-0.42,0.14-0.84-0.14-0.98-0.7
		c-0.14-0.7-0.28-1.82,0-2.52c0.84-0.42,0.98,1.12,1.54,0.42C51.76,245.92,52.6,245.08,53.16,244.1z M40.68,256.72
		c-0.42,0-0.7,0.14-1.12,0.28c-2.67,2.67-5.47,5.19-8.98,6.59c-2.24,0.42-3.93,1.82-6.03,2.24c-1.12,0.56-2.81,0.84-2.95,2.38
		c0.56,0.28,1.12,0.42,1.82,0.42c0.84,0,1.12-0.98,1.54-1.54c0.28-0.28,0.7-0.14,0.98,0.14c0.28,0.84,1.12,0.98,1.68,1.26
		c0.56,0,0.84-0.7,0.98-1.12c0.56-0.98,1.82-1.12,2.95-0.98c0.42-0.28,1.12-0.56,1.54-0.42c1.26,0.28,0.56,1.82,0.7,2.81
		c0.28,0.28,0.56,0,0.84-0.14c0.98-0.98,1.54-2.24,2.1-3.51c0.28-0.28,0.56-0.84,1.12-0.7c1.26,1.68,1.54-0.84,2.52-1.12
		c0.7-0.28,1.82,0.28,2.52-0.42c0.7-1.26,0.84-2.95,0.98-4.35c-0.28-0.98-1.26-0.14-2.1-0.28
		C40.96,257.98,40.96,257.28,40.68,256.72z M22.44,262.75l-0.28,0.28c0,0.56-0.14,1.26,0.28,1.68c0.84,0.28,1.82,0,2.38-0.28
		c0-0.84-0.98-0.98-1.54-1.54C23.15,262.89,22.72,262.61,22.44,262.75z M52.88,270.89l-3.51,0.98c-3.51,0.14-7.57,0-9.54,3.23
		l-1.96,0.28c-1.26,0.56-2.52,1.54-4.07,1.82c-0.42,0.28-1.12,0.14-1.26,0.7c0.84,0.7,2.24,0.28,3.23,0.28
		c0.56,0.14,0.7,0.84,0.84,1.4c0.56,0.28,0.98-0.42,1.54-0.28c0.28,0.14,0.56,0.42,0.7,0.84c0.28,1.82,2.52,2.24,3.23,3.65
		c0.28,0.56,0.14,1.4-0.28,1.82c-0.56,0.7-1.68,0.56-2.52,0.42c-1.68,0-3.09-0.42-4.63,0.14c-2.38,0.42-4.63-1.12-6.73,0.28
		c-0.14,0.14-0.28,0.42-0.14,0.7l2.38,0.98c0.28,0.42-0.14,0.98-0.14,1.4l1.26,0.28c0.84,0.7,1.82-0.14,2.52-0.56
		c0.84-0.56,1.68,0.14,2.38,0.42c0.42,0.28,1.12-0.14,1.54,0.42c0.42,0.56,0.14,1.82,1.12,1.68c0.28-0.7,0.7-1.4,1.26-1.82
		c1.68-1.4,3.79-0.56,5.89-0.84c1.4-0.14,0.98-1.68,2.1-2.24c0.7-1.12-0.56-1.82-1.12-2.81c-0.42-1.12,0.28-2.38,0.98-3.23
		c1.4-0.28,1.26,1.54,1.82,2.38c0.28,0.14,0.56,0.56,0.98,0.28c0-1.12,0.14-2.1,0.14-3.37c0.42-1.68,1.54-3.09,2.81-4.21
		c0.56-0.84,0.56-1.54,0.7-2.67C54.29,272.43,54.01,271.03,52.88,270.89z M30.58,283.09c-0.28,0-0.56,0-0.84,0.14
		c-0.14,0.42,0.14,1.12,0.56,1.54c0.7,0,1.4,0.28,2.1-0.14C31.98,283.93,31.28,283.23,30.58,283.09z M62.56,295.58l-0.28,0.28
		c0.14,0.14,0.14,0.28,0.42,0.28c0.14,0,0.56,0.14,0.56-0.28C63.26,295.72,62.84,295.44,62.56,295.58z"/>
	<polygon id="XMLID_52_" points="0.98,222.92 106.61,222.92 106.61,230.21 0.98,230.21 0.98,222.92 0.98,222.92 	"/>
	<polygon id="XMLID_53_" points="0.98,222.92 0.98,223.2 106.47,223.2 106.47,230.07 1.26,230.07 1.12,222.92 0.98,222.92 
		0.98,223.2 0.98,223.2 0.98,223.2 0.98,222.78 0.98,222.78 0.98,223.2 0.98,222.92 0.98,223.2 0.98,223.2 0.98,222.78 0.98,222.78 
		0.98,222.78 0.84,222.78 0.84,230.35 106.75,230.35 106.75,222.78 0.98,222.78 0.98,223.2 	"/>
	<path id="XMLID_58_" class="st2" d="M79.54,224.18H91.6v4.63H79.54C79.54,228.81,79.54,224.18,79.54,224.18z M53.44,224.18h11.92
		v4.63H53.44V224.18z M27.21,224.18h12.06v4.63H27.21V224.18z M2.24,224.18h10.94v4.63H2.24V224.18L2.24,224.18z"/>
	<path id="XMLID_59_" d="M18.24,197.39c3.51-1.54,7.43-0.42,11.36-0.7c0.98,0.28,2.52-0.56,3.09,0.56c0,1.12,0,2.24,0.14,3.37
		c0.42,0.84,1.54,0.14,2.1,0.56c0.42,0.28,0.84,0.42,0.84,0.84c0.28,0.56,0.14,1.12-0.28,1.54c-0.7,0.84-1.68,0.56-2.52,0.7
		l-0.28,0.42c0.14,2.1-0.42,3.93,0,5.89c-0.14,0.42-0.28,0.98,0.28,1.26c0.98,0,1.96,0,2.67,0.7c0.28,0.56,0.28,1.12,0.14,1.68
		c-0.42,2.1-3.79-0.28-3.37,2.24c0,0.98,0.28,2.24-0.14,3.09c-3.93,0-7.86-0.28-11.5,0c-0.7,0.56-1.54,0.98-2.38,0.98
		c-0.84-0.14-1.4-0.56-1.96-0.98c-3.51-0.14-7.01-0.14-10.24-0.28c-1.12-0.98-0.28-2.38-0.7-3.79c-0.56-0.7-1.4-0.14-2.1-0.56
		c-0.56,0-0.7-0.56-0.98-0.98c0-0.84,0-1.4,0.56-1.96c0.56-0.42,1.4-0.42,2.1-0.42l0.42-0.42c-0.28-2.38,0.42-4.63-0.14-7.15
		c-0.42-0.56-0.98,0-1.4-0.42c-0.7-0.14-1.26-0.42-1.54-1.12c-0.14-0.56-0.28-1.12,0.28-1.68c0.84-0.84,2.1,0.14,2.81-0.7l0.28-3.37
		c0.56-0.98,1.96-0.56,2.95-0.56c1.68-0.42,3.93-0.14,5.75,0C15.85,196.68,17.11,196.96,18.24,197.39z"/>
	<path id="XMLID_60_" d="M18.24,197.39l0.14,0.14c1.54-0.7,3.09-0.84,4.63-0.84c1.82,0,3.65,0.14,5.47,0.14c0.42,0,0.7,0,1.12,0
		v-0.14v0.14h0.56c0.42,0,0.98-0.14,1.4-0.14c0.56,0,0.84,0.14,1.12,0.56l0.14-0.14h-0.14c0,1.12,0,2.24,0.14,3.37l0,0l0,0
		c0.14,0.42,0.7,0.56,1.12,0.56c0.14,0,0.42,0,0.56,0c0.28,0,0.42,0,0.56,0.14l0,0l0,0c0.42,0.28,0.7,0.42,0.7,0.7l0,0l0,0
		l0.14,0.42c0,0.28-0.14,0.7-0.28,0.98l0.14,0.14l-0.14-0.14c-0.56,0.7-1.4,0.42-2.52,0.7h-0.14l-0.28,0.56l0,0l0,0
		c0,0.28,0,0.42,0,0.7c0,1.26-0.14,2.38-0.14,3.51c0,0.56,0,1.12,0.14,1.68h0.14h-0.14c0,0.14-0.14,0.42-0.14,0.7
		c0,0.28,0.14,0.7,0.42,0.84l0,0l0,0c0.98,0,1.96,0,2.52,0.56l0.14-0.14l-0.14,0.14c0.14,0.28,0.28,0.56,0.28,0.84
		c0,0.28,0,0.42-0.14,0.7l0,0l0,0c-0.14,0.42-0.28,0.56-0.42,0.7c-0.28,0.14-0.56,0.14-0.84,0.14s-0.56,0-0.84,0s-0.7,0-0.84,0.14
		c-0.28,0.14-0.42,0.42-0.42,0.98v0.42h0.14h-0.14c0,0.56,0,1.12,0,1.68c0,0.42,0,0.98-0.14,1.26l0.14,0.14v0
		c-2.81,0-5.61-0.14-8.42-0.14c-0.98,0-2.1,0-3.09,0.14l0,0l0,0c-0.56,0.56-1.4,0.84-2.38,0.98v0.14v-0.14
		c-0.7-0.14-1.26-0.56-1.96-0.98l0,0l0,0c-3.51-0.14-7.01-0.14-10.38-0.28v0.14l0.14-0.14c-0.42-0.42-0.56-0.84-0.56-1.4
		c0-0.42,0-0.84,0-1.26c0-0.28,0-0.7-0.14-0.98l0,0l0,0c-0.28-0.42-0.84-0.42-1.12-0.42H4.07c-0.28,0-0.42,0-0.7-0.14l0,0l0,0
		c-0.14,0-0.28-0.14-0.42-0.28c-0.14-0.14-0.28-0.42-0.42-0.56l-0.14,0.14h0.14c0-0.84,0-1.4,0.56-1.82l-0.14-0.14l0.14,0.14
		c0.42-0.42,1.26-0.28,1.96-0.42l0,0l0.42-0.42l0,0v-0.14c0-0.42,0-0.84,0-1.12c0-1.12,0.14-2.38,0.14-3.51c0-0.84,0-1.54-0.28-2.38
		l0,0l0,0c-0.28-0.28-0.56-0.42-0.84-0.28H4.35c-0.28,0-0.42,0-0.56-0.14l0,0l0,0c-0.7-0.14-1.12-0.28-1.4-0.98H2.24h0.14
		c0-0.28-0.14-0.56-0.14-0.7c0-0.28,0.14-0.42,0.28-0.7l0,0l0,0c0.28-0.28,0.56-0.28,0.84-0.28s0.56,0,0.84,0
		c0.42,0,0.84-0.14,1.12-0.42l0,0l0.28-3.51H5.47l0.14,0.14c0.28-0.42,0.56-0.56,1.12-0.56s1.12,0.14,1.68,0.14l0,0l0,0
		c0.56-0.14,1.26-0.14,1.96-0.14c1.26,0,2.52,0.14,3.65,0.14v-0.14v0.14c1.26,0,2.52,0.28,3.65,0.84h0.14h0.14L18.24,197.39
		l0.14-0.14c-1.12-0.56-2.52-0.7-3.79-0.84l0,0c-1.12,0-2.52-0.14-3.65-0.14c-0.7,0-1.4,0-2.1,0.14v0.14v-0.14
		c-0.42,0-1.12-0.14-1.68-0.14c-0.56,0-1.12,0.14-1.4,0.7l0,0l-0.28,3.51h0.14l-0.14-0.14c-0.28,0.28-0.42,0.28-0.84,0.28
		c-0.28,0-0.56,0-0.84,0c-0.42,0-0.84,0.14-1.12,0.42l0.14,0.14l-0.14-0.14c-0.42,0.28-0.42,0.7-0.42,0.98
		c0,0.28,0.14,0.56,0.14,0.84l0,0l0,0c0.28,0.84,0.98,1.12,1.68,1.26v-0.14l-0.14,0.14c0.28,0.14,0.56,0.28,0.7,0.28h0.14
		c0.28,0,0.42,0,0.56,0.14l0.14-0.14H5.33c0.14,0.84,0.14,1.54,0.14,2.38c0,1.12-0.14,2.38-0.14,3.51c0,0.42,0,0.84,0,1.26h0.14
		l-0.14-0.14l-0.42,0.42l0.14,0.14v-0.14c-0.7,0.14-1.54,0-2.1,0.42l0,0l0,0c-0.7,0.56-0.7,1.26-0.7,2.1l0,0l0,0
		c0.14,0.14,0.28,0.42,0.42,0.56c0.14,0.14,0.42,0.42,0.7,0.42v-0.14l-0.14,0.14c0.28,0.14,0.56,0.14,0.84,0.14h0.28
		c0.42,0,0.7,0,0.84,0.28l0.14-0.14H5.19c0.14,0.28,0.14,0.56,0.14,0.84c0,0.42,0,0.84,0,1.26c0,0.56,0.14,1.26,0.7,1.68l0,0h0.14
		c3.37,0,6.73,0,10.24,0.28v-0.14l-0.14,0.14c0.7,0.42,1.26,0.84,2.1,0.98l0,0l0,0c0.98-0.14,1.82-0.42,2.52-1.12l-0.14-0.14v0.14
		c0.98,0,1.96-0.14,3.09-0.14c2.81,0,5.61,0.14,8.42,0.14h0.14v-0.14c0.14-0.42,0.28-0.98,0.28-1.4c0-0.56,0-1.26,0-1.68l0,0l0,0
		v-0.28c0-0.42,0.14-0.56,0.28-0.56c0.14-0.14,0.42-0.14,0.7-0.14s0.56,0,0.84,0c0.28,0,0.7,0,0.98-0.14
		c0.28-0.14,0.56-0.42,0.7-0.98h-0.14h0.14c0-0.28,0.14-0.56,0.14-0.84c0-0.42-0.14-0.7-0.28-1.12l0,0l0,0
		c-0.84-0.7-1.82-0.7-2.81-0.7v0.14l0.14-0.14c-0.28-0.14-0.28-0.28-0.28-0.56c0-0.14,0-0.42,0.14-0.56l0,0l0,0
		c-0.14-0.56-0.14-1.12-0.14-1.68c0-1.12,0.14-2.38,0.14-3.51c0-0.28,0-0.42,0-0.7H33.1l0.14,0.14l0.28-0.42l-0.14-0.14v0.14
		c0.84-0.28,1.82,0.14,2.67-0.84l0,0l0,0c0.14-0.42,0.28-0.7,0.28-1.12c0-0.14,0-0.42-0.14-0.56l-0.14,0.14h0.14
		c-0.14-0.56-0.56-0.84-0.98-0.98l-0.14,0.14l0.14-0.14c-0.28-0.14-0.56-0.14-0.84-0.14c-0.14,0-0.42,0-0.56,0
		c-0.42,0-0.56,0-0.7-0.28l-0.14,0.14h0.14c-0.14-1.12-0.14-2.24-0.14-3.37l0,0l0,0c-0.28-0.56-0.98-0.7-1.54-0.7
		c-0.42,0-0.98,0.14-1.4,0.14H29.6l0,0l0,0c-0.42,0-0.7,0-1.12,0c-1.82,0-3.65-0.14-5.47-0.14
		C21.32,196.54,19.78,196.68,18.24,197.39L18.24,197.39l0.14-0.14L18.24,197.39z"/>
	<path id="XMLID_70_" class="st2" d="M19.92,217.73c0.14,0.56,0.14,1.26-0.42,1.54c-0.28,0.42-0.84,0.42-1.26,0.28
		c-0.42,0-0.56-0.56-0.56-0.98c-0.14-0.84,0.7-1.12,1.12-1.68C19.22,217.02,19.64,217.44,19.92,217.73 M8.28,197.81
		c-0.7,0.42-1.54,1.4-1.26,2.24c0.28,6.03,0,11.36,0.28,16.97l0.56,0.56c2.81,0,5.89-0.28,8.56,0.28l0.14,0.42
		c-0.7,0.28-1.54,0.14-2.38,0.14l-7.29-0.14c-0.56-0.42-0.28-1.4-0.28-1.96c0-0.7,0.28-1.54-0.56-1.96
		c-0.98-0.28-1.96,0.14-2.67-0.7c0.56-1.4,2.81-0.28,3.23-1.82c0.28-2.67-0.28-5.33-0.14-7.86c-0.28-1.4-1.82-0.98-2.95-1.26
		c-0.14-0.14-0.28-0.42-0.28-0.7c0.84-0.84,2.52,0.14,3.23-1.12c0.28-1.12,0-2.24,0.28-3.23c0.42-0.42,0.98-0.42,1.54-0.28
		L8.28,197.81L8.28,197.81z M31.7,197.81c0.28,1.12-0.28,2.67,0.42,3.79c0.7,0.42,1.82,0.28,2.52,0.42c0.28,0.28,0.28,0.7,0.14,0.98
		c-0.84,0.84-2.38-0.28-2.95,1.12c0,2.81-0.14,5.47,0,8.42l0.42,0.42c0.98,0.14,2.1-0.28,2.67,0.42c0,0.42,0,0.84-0.42,0.98
		c-0.98,0.28-2.24-0.28-2.81,0.7c-0.28,1.12,0.14,2.24-0.28,3.37l-0.56,0.28l-10.1-0.14c-0.28-0.14,0-0.28,0-0.42l0.98-0.42h8.14
		c0.84-0.28,0.84-1.26,0.98-1.96c-0.14-4.07,0-7.57-0.14-11.36c0-1.96,0.28-3.79-0.14-5.61c-0.14-0.42-0.7-0.7-0.84-1.26
		C30.72,197.39,31.42,197.39,31.7,197.81 M29.6,216.74c-0.28,0.42-0.84,0.28-1.26,0.42h-2.38c-1.82-0.14-3.79-0.28-5.33,0.14
		c-0.28,0-0.56-0.28-0.56-0.56c0.28-0.7,0.98-0.42,1.54-0.7c2.24,0.14,4.91,0,7.01,0C29.04,216.04,29.32,216.32,29.6,216.74
		 M30.3,199.21c-0.14,5.75,0,11.5-0.14,16.69c-0.14,0.28-0.42,0-0.7-0.28c-0.42-0.84-0.14-1.96-0.14-2.81c-0.28-4.63,0-9.4,0-14.17
		C29.74,198.37,30.16,198.93,30.3,199.21 M17.81,198.23l0.28,0.7c0.14,4.77,0.14,9.68,0.14,14.73l-0.14,1.82
		c-1.26,0-2.38-0.56-3.79-0.42c-1.4-0.14-2.95,0.14-4.07-0.28c-0.7-1.68-0.28-3.23-0.42-5.05c0.14-3.65,0.14-8,0.14-11.78
		c0-0.28,0.42-0.42,0.56-0.42C13.05,197.67,15.85,196.96,17.81,198.23 M28.48,197.95c0,5.75,0,11.36,0,16.97
		c-2.81,0.28-6.03-0.28-8.98,0.56c-0.56-0.56-0.14-1.54-0.28-2.24c-0.14-1.82,0-3.93-0.14-5.89c0.14-2.81-0.14-5.89,0.14-8.7
		c0.42-0.84,1.4-1.12,2.38-1.12l6.73,0.14L28.48,197.95L28.48,197.95L28.48,197.95z M17.53,216.46c0,0.42-0.28,0.7-0.7,0.84
		c-2.24-0.56-4.77-0.14-7.29-0.42l-0.14-0.14c0.14-0.42,0.56-0.84,0.98-0.84C13.05,215.9,15.29,215.9,17.53,216.46 M8.98,198.51
		c0.28,5.75-0.14,11.36,0.14,16.97c-0.14,0.28-0.42,0.7-0.7,0.7C8,214.36,8,212.68,8.14,210.85c-0.14-3.65,0-7.72,0-11.36
		C8.14,199.07,8.56,198.65,8.98,198.51"/>
	<path id="XMLID_71_" d="M66.63,196.68c0.42-0.14,0.84,0.28,1.26,0.56c0.42,1.4-0.14,2.52,0.28,3.79c0.98,0.42,2.24,0.14,2.81,1.26
		c0.28,0.56,0.28,1.4-0.14,1.82c-0.7,0.98-2.38,0-2.81,1.12c-0.14,2.52-0.28,4.35,0,6.73c0.7,0.7,1.96,0.14,2.67,1.12
		c0.42,0.42,0.56,0.98,0.42,1.54c-0.56,0.98-1.82,0.98-2.81,1.12c-0.42,0.42,0,0.98-0.28,1.54c-0.42,0.98,0.56,2.1-0.56,2.67
		c-2.95,0.42-5.75-0.14-8.7,0.14h-2.81c-0.84,0.56-1.68,1.26-2.67,0.7l-1.82-0.84c-2.1,0-4.21-0.14-6.31,0
		c-1.4-0.14-3.37,0.56-4.35-0.84c0-1.12,0.28-2.24,0-3.37c-1.12-0.42-2.81,0.14-3.51-1.26c-0.14-0.42,0-0.98,0.14-1.4
		c0.84-1.12,2.52-0.14,3.37-1.12v-3.09c0.28-1.54-0.14-2.67-0.14-4.21c-1.12-0.42-2.95,0.14-3.09-1.54
		c-0.14-0.84,0.42-1.54,1.12-1.68c0.7-0.28,1.68,0.14,2.1-0.56l0.28-3.37c0.84-1.4,2.95-0.56,4.21-0.84l6.45,0.14
		c0.98,0.14,1.96,1.12,2.95,0.56C58.35,195.7,62.7,197.11,66.63,196.68z"/>
	<path id="XMLID_72_" d="M66.63,196.68v0.14h0.14c0.28,0,0.7,0.28,0.98,0.42l0.14-0.14h-0.14c0.14,0.42,0.14,0.84,0.14,1.26
		c0,0.42,0,0.7,0,1.12s0,0.84,0.14,1.4v0.14h0.14c0.56,0.14,1.12,0.28,1.54,0.28c0.56,0.14,0.84,0.28,1.12,0.84
		c0.14,0.14,0.14,0.42,0.14,0.7s-0.14,0.7-0.28,0.84l0,0l0,0c-0.28,0.42-0.84,0.42-1.4,0.42c-0.28,0-0.56,0-0.84,0.14
		c-0.28,0.14-0.56,0.28-0.7,0.56l0,0l0,0c-0.14,1.4-0.14,2.52-0.14,3.79c0,0.98,0,1.96,0.14,3.09v0.14l0,0
		c0.42,0.42,0.98,0.42,1.4,0.56c0.56,0,0.84,0.14,1.12,0.56l0,0l0,0c0.28,0.28,0.42,0.56,0.42,0.98v0.42h0.14l-0.14-0.14
		c-0.42,0.84-1.68,0.84-2.67,1.12l0,0l0,0c-0.28,0.14-0.28,0.42-0.28,0.7s0,0.42,0,0.7v0.28l0,0l0,0c-0.14,0.28-0.14,0.42-0.14,0.7
		c0,0.42,0.14,0.84,0.14,1.12c0,0.42-0.14,0.56-0.42,0.84l0.14,0.14v-0.14c-0.84,0.14-1.68,0.14-2.52,0.14
		c-1.54,0-3.09-0.14-4.77-0.14c-0.56,0-0.98,0-1.54,0v0.14v-0.14l-2.95,0.14l0,0c-0.56,0.42-1.26,0.84-1.82,0.84
		c-0.14,0-0.42,0-0.7-0.14l0,0l-1.82-0.84l0,0l0,0c-0.42,0-0.84,0-1.26,0c-1.26,0-2.38,0-3.65,0c-0.42,0-0.98,0-1.4,0v0.14v-0.14
		h-0.28c-0.7,0-1.4,0.14-1.96,0.14c-0.84,0-1.54-0.14-1.96-0.84l-0.14,0.14h0.14c0-0.7,0.14-1.4,0.14-2.1c0-0.42,0-0.98-0.14-1.4
		v-0.14h-0.14c-0.56-0.14-1.26-0.14-1.96-0.28c-0.7-0.14-1.12-0.28-1.4-0.84l-0.14,0.14h0.14v-0.28c0-0.28,0.14-0.7,0.14-0.98h-0.14
		l0.14,0.14c0.28-0.42,0.84-0.56,1.54-0.56c0.56,0,1.4,0,1.82-0.56l0,0v-3.23h-0.14h0.14c0-0.42,0.14-0.84,0.14-1.26
		c0-0.98-0.14-1.96-0.14-2.95v-0.14h-0.14c-0.56-0.28-1.4-0.14-1.96-0.28c-0.56-0.14-0.98-0.28-1.12-0.98l0,0l0,0v-0.28
		c0-0.7,0.42-1.12,0.98-1.26l0,0l0,0c0.28-0.14,0.7,0,1.12-0.14c0.42,0,0.84-0.14,1.12-0.56l0,0l0.28-3.37h-0.14l0.14,0.14
		c0.42-0.56,0.98-0.7,1.68-0.7c0.56,0,1.26,0.14,1.82,0.14c0.14,0,0.42,0,0.56,0v-0.14v0.14l6.45,0.14v-0.14v0.14
		c0.7,0.14,1.4,0.7,2.24,0.7c0.28,0,0.56,0,0.84-0.28l-0.14-0.14l0.14,0.14c1.54-0.56,3.09-0.7,4.63-0.7c1.82,0,3.79,0.28,5.75,0.28
		c0.56,0,1.26,0,1.82-0.14l0,0l0,0L66.63,196.68v-0.14c-0.56,0-1.26,0.14-1.82,0.14c-1.82,0-3.79-0.28-5.75-0.28
		c-1.68,0-3.23,0.14-4.77,0.84l0,0l0,0c-0.14,0.14-0.42,0.14-0.56,0.14c-0.7,0-1.4-0.56-2.24-0.7l0,0l-6.59-0.14l0,0h-0.42
		c-0.56,0-1.12-0.14-1.82-0.14c-0.84,0-1.54,0.14-2.1,0.98l0,0l-0.28,3.37h0.14l-0.14-0.14c-0.14,0.28-0.42,0.28-0.7,0.28
		c-0.42,0-0.84,0-1.26,0.14v0.14v-0.14c-0.84,0.14-1.4,0.84-1.4,1.54v0.28h0.14h-0.14c0.14,0.98,0.7,1.26,1.4,1.4
		c0.7,0.14,1.4,0.14,1.82,0.28l0.14-0.14h-0.14c0,1.12,0.14,1.96,0.14,2.95c0,0.42,0,0.7-0.14,1.12l0,0v3.23h0.14l-0.14-0.14
		c-0.28,0.42-0.84,0.42-1.54,0.42c-0.7,0-1.4,0-1.82,0.7l0,0l0,0c-0.14,0.28-0.28,0.7-0.28,1.12v0.42l0,0l0,0
		c0.28,0.84,0.98,0.98,1.68,1.12s1.4,0,1.82,0.28v-0.14h-0.14c0.14,0.42,0.14,0.84,0.14,1.26c0,0.7-0.14,1.4-0.14,2.1l0,0l0,0
		c0.56,0.84,1.4,0.98,2.24,0.98c0.7,0,1.4-0.14,1.96-0.14h0.28l0,0l0,0c0.42,0,0.98,0,1.4,0c1.26,0,2.38,0,3.65,0
		c0.42,0,0.84,0,1.26,0v-0.14l-0.14,0.14l1.82,0.84l0.14-0.14l-0.14,0.14c0.28,0.14,0.56,0.28,0.84,0.28c0.84,0,1.54-0.56,2.1-0.98
		l-0.14-0.14v0.14h2.81l0,0c0.56,0,0.98,0,1.54,0c1.54,0,3.09,0.14,4.77,0.14c0.84,0,1.68,0,2.52-0.14l0,0l0,0
		c0.56-0.28,0.7-0.7,0.7-1.12s-0.14-0.7-0.14-1.12l0.14-0.56l-0.14-0.14l0.14,0.14l0.14-0.42c0-0.28,0-0.42,0-0.7l0.14-0.28
		l-0.14-0.14v0.14c0.98-0.28,2.24-0.14,2.95-1.26l0,0l0,0v-0.42c0-0.42-0.14-0.84-0.42-1.12L70,212.96l0.14-0.14
		c-0.42-0.56-0.98-0.7-1.4-0.7c-0.56,0-0.98-0.14-1.26-0.42l-0.14,0.14h0.14c-0.14-1.12-0.14-2.1-0.14-3.09c0-1.12,0-2.38,0.14-3.79
		h-0.14l0.14,0.14c0.14-0.28,0.28-0.28,0.42-0.42c0.28-0.14,0.7-0.14,1.12-0.14c0.42,0,0.84-0.14,1.26-0.56l-0.14-0.14l0.14,0.14
		c0.28-0.28,0.28-0.7,0.28-1.12c0-0.28,0-0.56-0.14-0.84c-0.28-0.7-0.84-0.84-1.4-0.98c-0.56-0.14-1.12-0.14-1.54-0.28l-0.14,0.14
		h0.14c-0.14-0.42-0.14-0.84-0.14-1.26c0-0.42,0-0.7,0-1.12c0-0.42,0-0.84-0.14-1.4v-0.14l0,0c-0.28-0.14-0.7-0.56-1.26-0.56h-0.14
		L66.63,196.68v-0.14V196.68z"/>
	<path id="XMLID_82_" class="st2" d="M67.05,197.95c0,1.26-0.14,2.38,0.28,3.79c0.84,0.84,3.23-0.28,2.81,1.54
		c-0.84,0.56-1.82,0.14-2.67,0.28l-0.28,0.28c-0.42,2.81,0.28,5.75,0,8.42c0,0.28,0.28,0.84,0.7,0.84c0.84,0.14,1.96-0.42,2.24,0.56
		c-0.14,1.68-2.38,0.14-2.95,1.54c-0.28,1.26,0.42,2.38-0.14,3.65l-0.42,0.28c-3.65-0.14-7.29-0.14-10.66-0.14l0.14-0.42l0.7-0.42
		c2.81-0.28,6.03,0,8.98-0.28c0.42-0.14,0.84-0.42,0.7-0.84c0-5.47,0.14-11.08,0.14-17.25c-0.14-0.84-0.98-1.4-1.12-2.1
		C65.93,197.53,66.77,197.25,67.05,197.95 M43.34,197.67c-0.14,0.56-0.7,0.84-0.98,1.4c-0.42,1.12,0.14,2.24-0.14,3.51
		c0.14,4.91,0,9.54,0.14,14.45c0,0.42,0.28,0.84,0.56,0.84l7.72,0.14c0.42,0,0.98,0.28,1.26,0.56c-0.14,0.42-0.7,0.28-1.12,0.42
		c-2.81,0-5.89,0.14-8.7-0.28l-0.28-0.28c-0.14-1.26,0-2.67-0.56-3.79c-0.84-0.42-1.96,0-2.81-0.28c-0.42-0.28-0.28-0.84,0-1.12
		c0.98-0.56,2.67,0.28,3.23-0.98c0-2.81,0.14-5.47,0-8.28c-0.84-1.12-2.38-0.14-3.09-1.12c0.28-1.68,2.52-0.28,3.23-1.54l0.28-3.37
		C42.22,197.39,42.78,197.53,43.34,197.67 M54.71,218.43c0,0.56-0.14,1.26-0.7,1.26c-0.56,0-1.26,0-1.26-0.7
		c0.14-0.56,0.56-0.98,1.12-1.26C54.29,217.59,54.57,218.15,54.71,218.43 M44.47,198.65c0.28,4.91-0.28,9.4,0,14.31
		c-0.42,1.12,0.56,2.81-1.12,3.09c-0.28-4.91,0-10.24-0.28-15.57c-0.14-0.84,0.42-1.68,1.12-2.1L44.47,198.65L44.47,198.65
		L44.47,198.65z M65.65,199.49c0,5.47,0.14,11.36-0.28,16.55c-0.28,0.14-0.7-0.28-0.7-0.56c0-2.24-0.28-4.49-0.14-6.73
		c0.14-3.09-0.28-6.73,0.14-9.96C65.09,198.65,65.65,199.07,65.65,199.49 M52.6,216.46c0.28,0,0.7,0.42,0.42,0.7l-0.56,0.56
		c-2.52-0.98-5.61-0.28-8.28-0.7c0.28-0.42,0.42-0.7,0.84-0.98C47.41,216.18,50.08,215.76,52.6,216.46 M63.96,216.04
		c0.42,0.28,0.84,0.56,0.84,0.98l-0.42,0.14c-2.95,0.14-6.03-0.28-8.84,0.42c-0.42,0.14-0.98,0-0.98-0.42
		c0.28-0.7,1.12-0.84,1.82-0.98C58.92,215.9,61.44,216.04,63.96,216.04 M63.68,198.09c-0.14,5.61,0,11.36-0.14,16.97l-0.28,0.14
		c-3.09,0.28-6.03-0.56-8.84,0.56c-0.56-0.28-0.14-1.12-0.28-1.68v-14.87c0-0.56,0.28-0.98,0.84-1.12c0.84-0.56,1.82-0.28,2.95-0.42
		l5.61,0.14L63.68,198.09L63.68,198.09z M53.3,209.45c0.28-2.95,0.14-6.03,0.14-8.84c0-0.84,0.14-1.82-0.56-2.38
		c-2.1-0.98-4.91-0.42-7.29-0.56c-0.14,0.14-0.42-0.14-0.42,0.28c0,5.61-0.14,10.94-0.14,16.55l0.14,0.7
		c1.68,0.28,3.51,0.14,5.19,0.14c0.98,0.14,1.82,0.42,2.67,0.56c0.14-1.96,0.28-3.51,0.14-5.33L53.3,209.45L53.3,209.45z"/>
	<path id="XMLID_83_" d="M101.84,196.82c0.84,1.12,0.28,2.52,0.56,3.93c0.98,0.84,2.95,0,3.09,1.68c0.14,0.7-0.28,1.26-0.7,1.68
		c-0.7,0.7-1.82,0-2.38,0.7c-0.28,2.1,0,4.49,0,7.01c0.7,0.42,1.54,0.28,2.24,0.7c0.42,0.42,0.7,0.84,0.7,1.4
		c-0.14,0.56-0.42,0.98-0.98,1.26c-0.56,0.28-1.54,0-1.82,0.84c-0.28,1.12,0.14,2.38-0.14,3.65c-0.84,0.42-1.68,0.42-2.52,0.42
		l-8.42-0.14c-0.84,0.42-1.68,1.26-2.67,0.84c-1.82-1.12-4.21-0.84-6.31-0.84l-6.31-0.14c-1.12-0.98-0.28-2.67-0.7-3.93
		c-0.42-0.7-1.54-0.42-2.24-0.84c-0.7-0.28-0.84-0.98-0.7-1.54c0-0.7,0.7-1.12,1.4-1.26c0.56-0.28,1.4,0.28,1.68-0.56
		c0-2.24-0.14-4.35-0.14-6.45c-0.14-1.26-1.82-0.56-2.52-0.98c-0.7-0.42-0.7-1.26-0.56-1.96c0.56-1.26,1.96-0.98,3.09-1.26
		l0.14-0.42l0.14-3.79l0.42-0.28l9.82,0.28c1.12,0,2.1,0.56,3.23,0.84c2.1-1.54,5.19-0.84,7.72-1.26
		C98.33,196.82,100.02,196.54,101.84,196.82z"/>
	<path id="XMLID_84_" d="M101.84,196.82l-0.14,0.14c0.42,0.42,0.42,0.98,0.42,1.68c0,0.42,0,0.84,0,1.4c0,0.28,0,0.56,0,0.7v0.14
		l0,0c0.56,0.42,1.26,0.42,1.96,0.56c0.56,0.14,0.98,0.28,1.12,1.12l0,0l0,0v0.28c0,0.42-0.28,0.84-0.56,1.26l0.14,0.14l-0.14-0.14
		c-0.28,0.28-0.56,0.28-1.12,0.28c-0.42,0-0.98,0-1.26,0.42l0,0l0,0c-0.14,0.7-0.14,1.54-0.14,2.24c0,1.54,0.14,3.09,0.14,4.77v0.14
		h0.14c0.7,0.42,1.54,0.42,2.24,0.7l0.14-0.14h-0.28c0.42,0.42,0.7,0.84,0.7,1.26h0.14h-0.14c0,0.56-0.42,0.84-0.84,1.12l0,0l0,0
		c-0.28,0.14-0.56,0.14-0.98,0.14c-0.42,0-0.84,0.28-0.98,0.7l0,0l0,0c-0.14,0.42-0.14,0.84-0.14,1.12c0,0.56,0,0.98,0,1.54
		c0,0.28,0,0.56-0.14,0.98h0.14l-0.14-0.14c-0.7,0.42-1.68,0.42-2.52,0.42l-8.42-0.14l0,0c-0.7,0.42-1.26,0.84-1.96,0.84
		c-0.14,0-0.42,0-0.56-0.14l-0.14,0.14l0.14-0.14c-1.26-0.84-2.81-0.84-4.35-0.84c-0.42,0-0.84,0-1.26,0c-0.28,0-0.56,0-0.7,0
		l-6.31-0.14v0.14l0.14-0.14c-0.42-0.42-0.56-0.84-0.56-1.54c0-0.42,0.14-0.98,0.14-1.54c0-0.28,0-0.56-0.14-0.84l0,0l0,0
		c-0.28-0.42-0.7-0.56-1.12-0.7c-0.42,0-0.84-0.14-1.26-0.28l0,0l0,0c-0.42-0.14-0.56-0.7-0.56-1.12v-0.28l0,0l0,0
		c0-0.56,0.56-0.84,1.26-0.98l0,0l0,0c0.14,0,0.28-0.14,0.42-0.14h0.28c0.14,0,0.42,0,0.56-0.14c0.14-0.14,0.28-0.28,0.42-0.56l0,0
		l0,0c0-1.82-0.14-3.51-0.14-5.19c0-0.42,0-0.84,0-1.26l0,0l0,0c0-0.42-0.28-0.56-0.42-0.84c-0.42-0.14-0.84-0.14-1.26-0.14
		c-0.42,0-0.84,0-0.98-0.14l0,0l0,0c-0.42-0.28-0.56-0.7-0.56-1.12c0-0.14,0-0.42,0-0.56H72.1l0.14,0.14
		c0.28-0.56,0.7-0.7,1.26-0.84c0.56-0.14,1.12-0.14,1.82-0.28h0.14l0.14-0.42l0,0l0.14-3.65l0.28-0.14l9.68,0.28l0,0
		c1.12,0,2.1,0.42,3.09,0.84h0.14h0.14c1.96-1.54,5.05-0.7,7.57-1.12v-0.14v0.14c1.82,0.42,3.51,0.14,5.19,0.42L101.84,196.82
		l-0.14,0.14L101.84,196.82v-0.14c-1.82-0.42-3.51-0.14-5.19-0.42l0,0l0,0c-2.38,0.42-5.61-0.42-7.72,1.26l0.14,0.14v-0.14
		c-1.12-0.28-2.1-0.84-3.23-0.84v0.14v-0.14l-9.82-0.28l-0.42,0.28h-0.14l-0.14,3.79l-0.14,0.28l0.14,0.14v-0.14
		c-0.56,0.14-1.12,0.14-1.68,0.28c-0.56,0.14-1.12,0.42-1.54,1.12l0,0l0,0c0,0.14,0,0.42,0,0.56c0,0.56,0.14,1.12,0.7,1.54
		l0.14-0.14l-0.14,0.14c0.42,0.28,1.12,0.28,1.54,0.28c0.28,0,0.42,0,0.56,0.14c0.14,0.14,0.28,0.14,0.28,0.42h0.14h-0.14
		c0,0.42,0,0.84,0,1.26c0,1.68,0.14,3.51,0.14,5.19h0.14h-0.14l-0.14,0.28h-0.42h-0.28c-0.14,0-0.42,0-0.7,0.14l0.14,0.14v-0.14
		c-0.7,0.14-1.4,0.56-1.54,1.4h0.14h-0.14v0.28c0,0.56,0.14,1.26,0.84,1.54l0.14-0.14l-0.14,0.14c0.42,0.14,0.84,0.14,1.26,0.28
		c0.42,0,0.7,0.14,0.84,0.42l0.14-0.14h-0.14c0,0.28,0.14,0.42,0.14,0.7c0,0.42-0.14,0.98-0.14,1.54c0,0.7,0.14,1.26,0.7,1.82l0,0
		l6.31,0.14v-0.14v0.14c0.28,0,0.56,0,0.84,0c0.42,0,0.84,0,1.26,0c1.54,0,2.95,0.14,4.07,0.84l0,0l0,0
		c0.28,0.14,0.42,0.14,0.7,0.14c0.84,0,1.54-0.56,2.24-0.98l-0.14-0.14v0.14l8.42,0.14c0.84,0,1.82,0,2.67-0.42h0.14v-0.14
		c0-0.28,0.14-0.7,0.14-0.98c0-0.56,0-1.12,0-1.54c0-0.42,0-0.7,0.14-1.12h-0.14h0.14c0.14-0.28,0.28-0.42,0.7-0.42
		c0.28,0,0.7,0,1.12-0.28l-0.14-0.14v0.14c0.56-0.28,1.12-0.7,1.12-1.4l0,0l0,0c0-0.7-0.42-1.12-0.7-1.54l0,0l0,0
		c-0.84-0.42-1.68-0.28-2.24-0.7l-0.14,0.14h0.14c0-1.68-0.14-3.23-0.14-4.77c0-0.7,0-1.54,0.14-2.24h-0.14l0.14,0.14
		c0.28-0.28,0.56-0.28,0.98-0.28c0.42,0,0.98,0,1.4-0.42l0,0l0,0c0.28-0.42,0.7-0.84,0.7-1.54v-0.28h-0.14h0.14
		c-0.14-0.98-0.84-1.26-1.4-1.4c-0.7-0.14-1.4-0.14-1.68-0.42l-0.14,0.14h0.14c0-0.28,0-0.42,0-0.7c0-0.42,0-0.84,0-1.4
		c0-0.7-0.14-1.26-0.56-1.82l0,0l0,0L101.84,196.82z"/>
	<path id="XMLID_93_" class="st2" d="M87.81,216.6c0.28,0.14,0.28,0.56,0,0.56c-0.84,0.98-1.96-0.28-3.09,0
		c-1.82-0.28-3.93,0-5.75-0.28c0.56-1.54,2.67-0.56,3.93-0.98C84.59,216.32,86.41,215.76,87.81,216.6 M98.33,216.32
		c0.42,0.28,0.7,0.56,0.84,0.98c-2.95,0.42-5.75-0.28-8.56,0.42c-0.42-0.14-0.56-0.56-0.42-0.84c0.56-0.7,1.54-0.56,2.38-0.7
		L98.33,216.32z M89.92,218.15c0.14,0.7,0.14,1.54-0.84,1.54c-0.56,0.14-1.12-0.28-1.26-0.7c-0.14-0.7,0.28-1.4,0.84-1.68
		C89.35,217.3,89.64,217.87,89.92,218.15 M77.85,197.81c-0.14,0.56-0.84,0.98-1.12,1.54c0.14,5.89,0,12.2,0.28,18.38l0.56,0.28
		c3.09,0,6.45-0.7,9.26,0.7v0.14c-3.51-0.14-6.87,0.28-10.24-0.14l-0.28-0.42c-0.14-1.26,0.14-2.52-0.42-3.65
		c-0.84-0.7-3.09,0.28-2.52-1.4c0.84-0.7,2.24,0.28,2.67-0.84c0-2.95,0.14-5.61-0.14-8.42c-0.7-0.84-1.82-0.28-2.67-0.56
		c-0.28-0.28-0.56-0.7-0.28-1.12c0.98-0.84,3.65,0.28,3.09-1.96c0.28-0.98-0.42-2.67,0.84-2.81
		C77.29,197.53,77.71,197.53,77.85,197.81 M101.28,197.95c0.28,1.4-0.28,2.67,0.56,3.93c0.84,0.28,2.24-0.28,2.67,0.56
		c-0.14,1.68-2.38,0.42-2.95,1.68c0.28,2.67-0.28,4.91,0.14,7.86c-0.28,0.28-0.42,0.56-0.14,0.84c0.84,0.7,1.82-0.42,2.52,0.28
		c0.56,0.14,0.28,0.56,0.28,0.84c-0.7,0.98-2.24-0.14-2.67,1.12l-0.14,3.65l-0.56,0.28h-9.54v-0.28l1.12-0.42h7.29
		c0.42,0,0.84-0.42,0.84-0.84c-0.14-5.61-0.14-11.5-0.14-17.67l-0.84-1.68C100.02,197.39,101,197.39,101.28,197.95 M78.97,200.19
		v15.43c-0.14,0.42-0.7,0.7-0.98,0.98l-0.28-0.28c0-1.68,0-3.51,0-5.05v-1.26c-0.14-3.37-0.14-7.15,0-10.52
		c0.28-0.28,0.56-0.84,0.98-0.98C78.97,199.07,78.83,199.49,78.97,200.19 M99.88,199.35c-0.14,4.07,0,7.86,0.14,11.64
		c-0.14,1.82-0.14,3.37-0.14,5.05l-0.28,0.28c-1.26-0.56-0.84-1.82-0.84-2.95c0.14-1.54-0.14-3.23,0.14-4.77l-0.28-0.56l0.14-9.4
		C99.03,198.09,99.59,199.07,99.88,199.35 M98.05,199.63c0-0.7,0.14-1.4-0.28-1.96l-2.52-0.14c-1.82,0.28-3.93-0.28-5.47,0.7
		c-0.7,0.84-0.42,1.82-0.56,2.95c0.14,0.56,0.28,1.26,0.56,1.82l-0.28,0.84l-1.12-0.28L88.09,203c0.14-0.42,0.28-0.84,0.28-1.4
		c0-1.26,0.42-3.09-1.26-3.65c-2.38-0.14-4.49-0.28-7.01-0.28l-0.42,0.28c0,5.47,0,10.24,0,15.71c0,0.7-0.28,1.54,0.56,1.82
		c2.1-0.28,3.93,0,5.89-0.14c0.7,0,1.26,0.7,2.1,0.56c0.28-2.24,0.28-4.91,0.14-7.29c-0.14-0.14,0-0.7-0.28-0.84v-0.42l1.26,0.14
		l0.14,0.42l-0.14,0.14l-0.14,7.43c0,0.28,0,0.84,0.56,0.7c2.24-1.26,4.91-0.42,7.57-0.7l0.56-0.28c0.28-1.26,0.14-5.61,0.14-5.61
		C98.05,206.22,98.05,203,98.05,199.63"/>
	<path id="XMLID_94_" class="st2" d="M89.35,206.5c-0.14,0.42-0.84,0.42-1.12,0.28l-0.42-0.14c0.28-0.84,0-1.68,0.7-2.24
		C89.07,204.68,89.07,205.66,89.35,206.5"/>
	<path id="XMLID_103_" d="M52.6,209.17c-0.84-0.7-1.12-1.82-1.82-2.67c0.28-0.42,0.84-0.56,1.12-0.84c0.56-0.56,1.12-1.4,0.84-2.24
		c-0.14-0.7-0.42-1.4-1.12-1.82c-1.54-0.56-3.37-0.28-4.91-0.14c-0.28,0.14-0.42,0.42-0.14,0.56c0.56,0.28,0.84,0.7,0.84,1.12
		c-0.14,1.96-0.14,3.93-0.28,5.75l-0.84,0.84c0.84,0.7,1.82,0.14,3.09,0.42c0.28-0.56-0.56-0.84-0.7-1.4c0.14-0.56,0-1.4,0.42-1.82
		c1.12,0.98,1.4,2.38,2.67,3.23l1.68,0.14v-0.98C53.16,209.59,52.74,209.31,52.6,209.17 M50.36,205.66c-0.42,0-1.26,0.42-1.4-0.28
		c0-0.98-0.42-2.1,0-3.09c0.7-0.56,1.68-0.28,2.1,0.42c0.28,0.56,0.28,1.12,0.28,1.68C51.06,204.96,50.92,205.52,50.36,205.66
		 M89.78,207.63c0.28,0.42,0.42,0.84,0.42,1.4l-0.56,0.84l0.42,0.28c0.84,0,1.96,0.28,2.81-0.14c-0.28-0.42-0.7-0.56-0.98-0.84
		c-0.98-2.67-1.68-5.47-2.52-8.14l-0.84,0.42c-0.56,2.38-1.54,4.63-2.1,7.15c-0.14,0.42-0.56,0.56-0.98,0.84
		c-0.56,0.14-0.7-0.42-0.98-0.7c0-2.1,0.28-3.93,0.14-6.31c-0.14-0.42,0.42-0.84,0.7-0.42c0.56,0.28,0.56,0.98,0.7,1.54
		c0.14,0.28,0.56,0.28,0.56-0.14l0.42-2.24c-0.28-0.7-0.98,0.14-1.54,0c-1.12-0.14-2.52,0.28-3.65-0.42
		c-0.84,0.28-0.56,1.54-0.84,2.24l0.14,0.42c0.7-0.42,1.12-1.54,2.1-1.26l0.14,2.1l-0.28,4.63c-0.28,0.42-0.98,0.42-0.98,0.98
		c1.26,0.42,2.67,0,3.93,0.14c0.7,0,1.54,0.28,2.1,0v-0.56c-0.42-0.28-0.98-0.56-0.84-1.12c0.28-0.42,0.28-1.12,0.98-0.84l0.28,0.14
		l0.98,0.14l0,0C89.49,207.77,89.49,207.63,89.78,207.63 M88.23,206.64l-0.42-0.14c0.28-0.84,0-1.68,0.7-2.24
		c0.7,0.42,0.56,1.4,0.84,2.24C89.21,206.78,88.51,206.78,88.23,206.64 M96.23,201.73c0,0.56,0.42,1.4,0,1.82
		c-0.56-0.42-0.56-0.84-1.4-1.12c-0.42,0-0.84,0.14-0.98,0.56c-0.14,1.54,1.4,1.54,2.24,2.52c0.84,0.84,1.12,2.1,0.84,3.09
		c-0.28,0.84-0.7,1.26-1.54,1.26c-0.7,0.14-1.26-0.42-1.82-0.14c-0.14,0-0.42,0.14-0.56-0.14l0.14-2.81l0.42-0.28
		c0.42,0.98,0.14,2.1,1.4,2.1c0.42,0,0.84-0.14,0.84-0.7c0.14-2.52-3.23-1.96-3.09-4.49c0.14-0.56,0.14-1.12,0.42-1.54
		c0.56-0.98,1.82-0.42,2.81-0.98C96.23,201.03,96.23,201.59,96.23,201.73 M60.32,201.59c-0.7,0.42-1.54,0.98-1.26,1.96
		c-0.28,1.68-0.14,3.51,0,5.33l1.12,0.98l-0.14,0.14c-1.26,0-2.38,0.28-3.65,0c-0.56-0.56,0.7-0.84,0.84-1.26
		c0.28-1.96,0.42-4.07,0.28-6.31c-0.28-0.7-1.26-0.42-0.98-1.12c1.12-0.14,2.52-0.14,3.65,0L60.32,201.59z M25.53,203
		c-0.7,0.84-0.84-0.84-1.54-0.84c-0.42,0-1.12-0.14-1.4,0.14c-0.14,0.98-0.28,1.82,0,2.67c0.28,0.28,0.84,0.14,1.26,0.14
		c0.42-0.28,0.7-1.12,1.26-0.98c0.42,0.42-0.14,0.98,0,1.26c-0.14,0.56,0.42,1.26-0.28,1.4c-0.42-0.28-0.7-0.98-1.26-0.98
		l-0.98,0.14c-0.42,1.26-0.28,2.38,0,3.65c0.56,0.56,1.26,0,1.96,0c0.98-0.14,0.7-1.54,1.54-1.4c0.28,0.56,0.28,1.26,0.14,1.82
		l-0.42,0.28h-5.05c-0.28-0.14-0.7-0.14-0.56-0.42c1.68-0.98,0.7-2.95,0.98-4.49c-0.28-1.12,0.7-2.95-0.84-3.65
		c-0.14-0.42,0.42-0.28,0.56-0.42c1.26,0,2.95,0.42,4.07-0.56C25.53,201.17,25.53,202.3,25.53,203 M17.67,201.87
		c-1.4,1.12-1.54,3.23-2.1,4.77c-0.56,0.98-0.28,2.24-1.26,3.09c-0.42,0.14-0.7-0.28-0.7-0.56c-0.56-2.24-1.12-4.49-1.96-6.59
		c-0.14-0.7-1.54-0.84-0.7-1.26c1.12-0.14,1.82,0.14,2.81,0c0.28,0.7-0.84,0.98-0.56,1.82c0.7,0.98,0.42,2.38,1.26,3.23l0.42-0.42
		c0-1.68,1.96-3.09,0.28-4.63c0.42-0.56,1.4-0.14,2.1-0.42C17.53,201.31,18.1,201.45,17.67,201.87"/>
</g>
</svg>
