<?xml version="1.0" encoding="UTF-8" standalone="no"?>
<svg
   viewBox="0 0 61.040495 20.160001"
   version="1.1"
   id="svg850"
   sodipodi:docname="UAB_Medicine_Logo.svg"
   width="61.040497"
   height="20.16"
   inkscape:version="1.1.2 (b8e25be8, 2022-02-05)"
   xmlns:inkscape="http://www.inkscape.org/namespaces/inkscape"
   xmlns:sodipodi="http://sodipodi.sourceforge.net/DTD/sodipodi-0.dtd"
   xmlns="http://www.w3.org/2000/svg"
   xmlns:svg="http://www.w3.org/2000/svg"
   xmlns:rdf="http://www.w3.org/1999/02/22-rdf-syntax-ns#"
   xmlns:cc="http://creativecommons.org/ns#"
   xmlns:dc="http://purl.org/dc/elements/1.1/">
  <sodipodi:namedview
     id="namedview852"
     pagecolor="#ffffff"
     bordercolor="#666666"
     borderopacity="1.0"
     inkscape:pageshadow="2"
     inkscape:pageopacity="0.0"
     inkscape:pagecheckerboard="0"
     showgrid="false"
     inkscape:zoom="5.1034219"
     inkscape:cx="29.098123"
     inkscape:cy="13.128446"
     inkscape:window-width="1312"
     inkscape:window-height="822"
     inkscape:window-x="0"
     inkscape:window-y="37"
     inkscape:window-maximized="0"
     inkscape:current-layer="svg850" />
  <defs
     id="defs826">
    <style
       id="style824">.a{fill:#006241;}.b{fill:#231f20;}</style>
  </defs>
  <title
     id="title828">UAB_Medicine_Logo</title>
  <path
     class="a"
     d="m 61.04,14.68 c 0,-4.45 -3.07,-5.26 -3.07,-5.26 2.26,-1 2,-4.23 2,-4.23 A 5,5 0 0 0 55.04,0 H 30.37 l -5,7.74 V 0.02 h -7.42 v 12.69 a 1.43,1.43 0 0 1 -1.17,1.32 H 8.68 A 1.72,1.72 0 0 1 7,12.56 V 0.02 H 0 V 15.7 c 0.8,4.6 4.6,4.45 4.6,4.45 h 22.41 l 1.53,-3.13 h 8 v 3.14 h 20.22 c 4.42,-0.4 4.28,-5.48 4.28,-5.48 z M 36.38,11.47 h -4.51 l 3.2,-5.34 h 1.35 z m 7.93,-5.48 h 9.15 c 0.71,0 0.67,0.76 0.67,0.76 0,0.54 -0.67,0.67 -0.67,0.67 h -9.15 z m 10.72,7.23 c 0,0.55 -0.67,0.67 -0.67,0.67 h -10 v -1.38 h 10 c 0.71,0 0.67,0.71 0.67,0.71 z"
     id="path830" />
  <metadata
     id="metadata934">
    <rdf:RDF>
      <cc:Work
         rdf:about="">
        <dc:title>UAB_Medicine_Logo</dc:title>
      </cc:Work>
    </rdf:RDF>
  </metadata>
</svg>
